<?xml version="1.0" encoding="utf-8" standalone="no"?>
<!DOCTYPE svg PUBLIC "-//W3C//DTD SVG 1.1//EN"
  "http://www.w3.org/Graphics/SVG/1.1/DTD/svg11.dtd">
<svg xmlns:xlink="http://www.w3.org/1999/xlink" width="706.607812pt" height="418.57875pt" viewBox="0 0 706.607812 418.57875" xmlns="http://www.w3.org/2000/svg" version="1.1">
 <metadata>
  <rdf:RDF xmlns:dc="http://purl.org/dc/elements/1.1/" xmlns:cc="http://creativecommons.org/ns#" xmlns:rdf="http://www.w3.org/1999/02/22-rdf-syntax-ns#">
   <cc:Work>
    <dc:type rdf:resource="http://purl.org/dc/dcmitype/StillImage"/>
    <dc:date>2026-06-30T21:07:54.084978</dc:date>
    <dc:format>image/svg+xml</dc:format>
    <dc:creator>
     <cc:Agent>
      <dc:title>Matplotlib v3.10.9, https://matplotlib.org/</dc:title>
     </cc:Agent>
    </dc:creator>
   </cc:Work>
  </rdf:RDF>
 </metadata>
 <defs>
  <style type="text/css">*{stroke-linejoin: round; stroke-linecap: butt}</style>
 </defs>
 <g id="figure_1">
  <g id="patch_1">
   <path d="M 0 418.57875 
L 706.607812 418.57875 
L 706.607812 0 
L 0 0 
z
" style="fill: #0d1117"/>
  </g>
  <g id="axes_1">
   <g id="patch_2">
    <path d="M 72.137813 391.797187 
L 699.407813 391.797187 
L 699.407813 38.877187 
L 72.137813 38.877187 
z
" style="fill: #161b22"/>
   </g>
   <g id="matplotlib.axis_1">
    <g id="xtick_1">
     <g id="line2d_1">
      <path d="M 223.771263 391.797187 
L 223.771263 38.877187 
" clip-path="url(#p9ca4539412)" style="fill: none; stroke-dasharray: 2.96,1.28; stroke-dashoffset: 0; stroke: #30363d; stroke-opacity: 0.35; stroke-width: 0.8"/>
     </g>
     <g id="line2d_2">
      <defs>
       <path id="mf6856e3ca2" d="M 0 0 
L 0 3.5 
" style="stroke: #c9d1d9; stroke-width: 0.8"/>
      </defs>
      <g>
       <use xlink:href="#mf6856e3ca2" x="223.771263" y="391.797187" style="fill: #c9d1d9; stroke: #c9d1d9; stroke-width: 0.8"/>
      </g>
     </g>
     <g id="text_1">
      <text style="font-size: 13px; font-family: 'DejaVu Sans'; text-anchor: middle; fill: #c9d1d9" x="223.771263" y="408.675156" transform="rotate(-0 223.771263 408.675156)">linux</text>
     </g>
    </g>
    <g id="xtick_2">
     <g id="line2d_3">
      <path d="M 547.774362 391.797187 
L 547.774362 38.877187 
" clip-path="url(#p9ca4539412)" style="fill: none; stroke-dasharray: 2.96,1.28; stroke-dashoffset: 0; stroke: #30363d; stroke-opacity: 0.35; stroke-width: 0.8"/>
     </g>
     <g id="line2d_4">
      <g>
       <use xlink:href="#mf6856e3ca2" x="547.774362" y="391.797187" style="fill: #c9d1d9; stroke: #c9d1d9; stroke-width: 0.8"/>
      </g>
     </g>
     <g id="text_2">
      <text style="font-size: 13px; font-family: 'DejaVu Sans'; text-anchor: middle; fill: #c9d1d9" x="547.774362" y="408.675156" transform="rotate(-0 547.774362 408.675156)">cachyos-bore</text>
     </g>
    </g>
   </g>
   <g id="matplotlib.axis_2">
    <g id="ytick_1">
     <g id="line2d_5">
      <defs>
       <path id="mff43571a11" d="M 0 0 
L -3.5 0 
" style="stroke: #c9d1d9; stroke-width: 0.8"/>
      </defs>
      <g>
       <use xlink:href="#mff43571a11" x="72.137813" y="391.797187" style="fill: #c9d1d9; stroke: #c9d1d9; stroke-width: 0.8"/>
      </g>
     </g>
     <g id="text_3">
      <text style="font-size: 13px; font-family: 'DejaVu Sans'; text-anchor: end; fill: #c9d1d9" x="65.137813" y="396.736172" transform="rotate(-0 65.137813 396.736172)">0</text>
     </g>
    </g>
    <g id="ytick_2">
     <g id="line2d_6">
      <g>
       <use xlink:href="#mff43571a11" x="72.137813" y="329.269283" style="fill: #c9d1d9; stroke: #c9d1d9; stroke-width: 0.8"/>
      </g>
     </g>
     <g id="text_4">
      <text style="font-size: 13px; font-family: 'DejaVu Sans'; text-anchor: end; fill: #c9d1d9" x="65.137813" y="334.208267" transform="rotate(-0 65.137813 334.208267)">2000</text>
     </g>
    </g>
    <g id="ytick_3">
     <g id="line2d_7">
      <g>
       <use xlink:href="#mff43571a11" x="72.137813" y="266.741378" style="fill: #c9d1d9; stroke: #c9d1d9; stroke-width: 0.8"/>
      </g>
     </g>
     <g id="text_5">
      <text style="font-size: 13px; font-family: 'DejaVu Sans'; text-anchor: end; fill: #c9d1d9" x="65.137813" y="271.680362" transform="rotate(-0 65.137813 271.680362)">4000</text>
     </g>
    </g>
    <g id="ytick_4">
     <g id="line2d_8">
      <g>
       <use xlink:href="#mff43571a11" x="72.137813" y="204.213473" style="fill: #c9d1d9; stroke: #c9d1d9; stroke-width: 0.8"/>
      </g>
     </g>
     <g id="text_6">
      <text style="font-size: 13px; font-family: 'DejaVu Sans'; text-anchor: end; fill: #c9d1d9" x="65.137813" y="209.152458" transform="rotate(-0 65.137813 209.152458)">6000</text>
     </g>
    </g>
    <g id="ytick_5">
     <g id="line2d_9">
      <g>
       <use xlink:href="#mff43571a11" x="72.137813" y="141.685568" style="fill: #c9d1d9; stroke: #c9d1d9; stroke-width: 0.8"/>
      </g>
     </g>
     <g id="text_7">
      <text style="font-size: 13px; font-family: 'DejaVu Sans'; text-anchor: end; fill: #c9d1d9" x="65.137813" y="146.624553" transform="rotate(-0 65.137813 146.624553)">8000</text>
     </g>
    </g>
    <g id="ytick_6">
     <g id="line2d_10">
      <g>
       <use xlink:href="#mff43571a11" x="72.137813" y="79.157664" style="fill: #c9d1d9; stroke: #c9d1d9; stroke-width: 0.8"/>
      </g>
     </g>
     <g id="text_8">
      <text style="font-size: 13px; font-family: 'DejaVu Sans'; text-anchor: end; fill: #c9d1d9" x="65.137813" y="84.096648" transform="rotate(-0 65.137813 84.096648)">10000</text>
     </g>
    </g>
    <g id="text_9">
     <text style="font-size: 13px; font-family: 'DejaVu Sans'; text-anchor: middle; fill: #f0f6fc" x="17.077969" y="215.337187" transform="rotate(-90 17.077969 215.337187)">KiB/s</text>
    </g>
   </g>
   <g id="patch_3">
    <path d="M 113.610209 391.797187 
L 204.331077 391.797187 
Q 217.291201 391.797187 217.291201 391.796562 
L 217.291201 91.695134 
Q 217.291201 91.694509 204.331077 91.694509 
L 113.610209 91.694509 
Q 100.650085 91.694509 100.650085 91.695134 
L 100.650085 391.796562 
Q 100.650085 391.797187 113.610209 391.797187 
z
" clip-path="url(#p9ca4539412)" style="fill: #4f8ef7"/>
   </g>
   <g id="patch_4">
    <path d="M 437.613308 391.797187 
L 528.334176 391.797187 
Q 541.2943 391.797187 541.2943 391.796562 
L 541.2943 84.910856 
Q 541.2943 84.910231 528.334176 84.910231 
L 437.613308 84.910231 
Q 424.653184 84.910231 424.653184 84.910856 
L 424.653184 391.796562 
Q 424.653184 391.797187 437.613308 391.797187 
z
" clip-path="url(#p9ca4539412)" style="fill: #4f8ef7"/>
   </g>
   <g id="patch_5">
    <path d="M 243.211449 391.797187 
L 333.932317 391.797187 
Q 346.892441 391.797187 346.892441 391.796562 
L 346.892441 101.011792 
Q 346.892441 101.011166 333.932317 101.011166 
L 243.211449 101.011166 
Q 230.251325 101.011166 230.251325 101.011792 
L 230.251325 391.796562 
Q 230.251325 391.797187 243.211449 391.797187 
z
" clip-path="url(#p9ca4539412)" style="fill: #06b6d4"/>
   </g>
   <g id="patch_6">
    <path d="M 567.214548 391.797187 
L 657.935416 391.797187 
Q 670.89554 391.797187 670.89554 391.796562 
L 670.89554 88.881378 
Q 670.89554 88.880753 657.935416 88.880753 
L 567.214548 88.880753 
Q 554.254424 88.880753 554.254424 88.881378 
L 554.254424 391.796562 
Q 554.254424 391.797187 567.214548 391.797187 
z
" clip-path="url(#p9ca4539412)" style="fill: #06b6d4"/>
   </g>
   <g id="patch_7">
    <path d="M 72.137813 391.797187 
L 72.137813 38.877187 
" style="fill: none; stroke: #30363d; stroke-width: 0.8; stroke-linejoin: miter; stroke-linecap: square"/>
   </g>
   <g id="patch_8">
    <path d="M 72.137812 391.797187 
L 699.407813 391.797187 
" style="fill: none; stroke: #30363d; stroke-width: 0.8; stroke-linejoin: miter; stroke-linecap: square"/>
   </g>
   <g id="text_10">
    <text style="font-size: 10px; font-family: 'DejaVu Sans'; text-anchor: middle; fill: #f0f6fc" x="158.970643" y="85.011517" transform="rotate(-0 158.970643 85.011517)">9599.0</text>
   </g>
   <g id="text_11">
    <text style="font-size: 10px; font-family: 'DejaVu Sans'; text-anchor: middle; fill: #f0f6fc" x="482.973742" y="78.227239" transform="rotate(-0 482.973742 78.227239)">9816.0</text>
   </g>
   <g id="text_12">
    <text style="font-size: 10px; font-family: 'DejaVu Sans'; text-anchor: middle; fill: #f0f6fc" x="288.571883" y="94.328175" transform="rotate(-0 288.571883 94.328175)">9301.0</text>
   </g>
   <g id="text_13">
    <text style="font-size: 10px; font-family: 'DejaVu Sans'; text-anchor: middle; fill: #f0f6fc" x="612.574982" y="82.197761" transform="rotate(-0 612.574982 82.197761)">9689.0</text>
   </g>
   <g id="text_14">
    <text style="font-weight: 700; font-size: 18px; font-family: 'DejaVu Sans'; text-anchor: middle; fill: #ffffff" x="385.772813" y="20.877187" transform="rotate(-0 385.772813 20.877187)">7z-commpression</text>
   </g>
   <g id="legend_1">
    <g id="patch_9">
     <path d="M 83.837813 60.455156 
L 109.837813 60.455156 
L 109.837813 51.355156 
L 83.837813 51.355156 
z
" style="fill: #4f8ef7"/>
    </g>
    <g id="text_15">
     <text style="font-size: 13px; font-family: 'DejaVu Sans'; text-anchor: start; fill: #f0f6fc" x="120.237813" y="60.455156" transform="rotate(-0 120.237813 60.455156)">v1-repo</text>
    </g>
    <g id="patch_10">
     <path d="M 196.151719 60.455156 
L 222.151719 60.455156 
L 222.151719 51.355156 
L 196.151719 51.355156 
z
" style="fill: #06b6d4"/>
    </g>
    <g id="text_16">
     <text style="font-size: 13px; font-family: 'DejaVu Sans'; text-anchor: start; fill: #f0f6fc" x="232.551719" y="60.455156" transform="rotate(-0 232.551719 60.455156)">v3-repo</text>
    </g>
   </g>
  </g>
 </g>
 <defs>
  <clipPath id="p9ca4539412">
   <rect x="72.137813" y="38.877187" width="627.27" height="352.92"/>
  </clipPath>
 </defs>
</svg>
