<?xml version="1.0" encoding="utf-8" standalone="no"?>
<!DOCTYPE svg PUBLIC "-//W3C//DTD SVG 1.1//EN"
  "http://www.w3.org/Graphics/SVG/1.1/DTD/svg11.dtd">
<svg xmlns:xlink="http://www.w3.org/1999/xlink" width="706.522813pt" height="418.438125pt" viewBox="0 0 706.522813 418.438125" xmlns="http://www.w3.org/2000/svg" version="1.1">
 <metadata>
  <rdf:RDF xmlns:dc="http://purl.org/dc/elements/1.1/" xmlns:cc="http://creativecommons.org/ns#" xmlns:rdf="http://www.w3.org/1999/02/22-rdf-syntax-ns#">
   <cc:Work>
    <dc:type rdf:resource="http://purl.org/dc/dcmitype/StillImage"/>
    <dc:date>2026-06-30T21:07:53.904723</dc:date>
    <dc:format>image/svg+xml</dc:format>
    <dc:creator>
     <cc:Agent>
      <dc:title>Matplotlib v3.10.9, https://matplotlib.org/</dc:title>
     </cc:Agent>
    </dc:creator>
   </cc:Work>
  </rdf:RDF>
 </metadata>
 <defs>
  <style type="text/css">*{stroke-linejoin: round; stroke-linecap: butt}</style>
 </defs>
 <g id="figure_1">
  <g id="patch_1">
   <path d="M 0 418.438125 
L 706.522813 418.438125 
L 706.522813 0 
L 0 0 
z
" style="fill: #0d1117"/>
  </g>
  <g id="axes_1">
   <g id="patch_2">
    <path d="M 39.052813 391.656562 
L 699.322813 391.656562 
L 699.322813 38.736562 
L 39.052813 38.736562 
z
" style="fill: #161b22"/>
   </g>
   <g id="matplotlib.axis_1">
    <g id="xtick_1">
     <g id="line2d_1">
      <path d="M 199.945673 391.656562 
L 199.945673 38.736562 
" clip-path="url(#p1514fb237f)" style="fill: none; stroke-dasharray: 2.96,1.28; stroke-dashoffset: 0; stroke: #30363d; stroke-opacity: 0.35; stroke-width: 0.8"/>
     </g>
     <g id="line2d_2">
      <defs>
       <path id="m724dba9d04" d="M 0 0 
L 0 3.5 
" style="stroke: #c9d1d9; stroke-width: 0.8"/>
      </defs>
      <g>
       <use xlink:href="#m724dba9d04" x="199.945673" y="391.656562" style="fill: #c9d1d9; stroke: #c9d1d9; stroke-width: 0.8"/>
      </g>
     </g>
     <g id="text_1">
      <text style="font-size: 13px; font-family: 'DejaVu Sans'; text-anchor: middle; fill: #c9d1d9" x="199.945673" y="408.534531" transform="rotate(-0 199.945673 408.534531)">linux</text>
     </g>
    </g>
    <g id="xtick_2">
     <g id="line2d_3">
      <path d="M 538.429952 391.656562 
L 538.429952 38.736562 
" clip-path="url(#p1514fb237f)" style="fill: none; stroke-dasharray: 2.96,1.28; stroke-dashoffset: 0; stroke: #30363d; stroke-opacity: 0.35; stroke-width: 0.8"/>
     </g>
     <g id="line2d_4">
      <g>
       <use xlink:href="#m724dba9d04" x="538.429952" y="391.656562" style="fill: #c9d1d9; stroke: #c9d1d9; stroke-width: 0.8"/>
      </g>
     </g>
     <g id="text_2">
      <text style="font-size: 13px; font-family: 'DejaVu Sans'; text-anchor: middle; fill: #c9d1d9" x="538.429952" y="408.534531" transform="rotate(-0 538.429952 408.534531)">cachyos-bore</text>
     </g>
    </g>
   </g>
   <g id="matplotlib.axis_2">
    <g id="ytick_1">
     <g id="line2d_5">
      <defs>
       <path id="m5b84f151af" d="M 0 0 
L -3.5 0 
" style="stroke: #c9d1d9; stroke-width: 0.8"/>
      </defs>
      <g>
       <use xlink:href="#m5b84f151af" x="39.052813" y="391.656562" style="fill: #c9d1d9; stroke: #c9d1d9; stroke-width: 0.8"/>
      </g>
     </g>
     <g id="text_3">
      <text style="font-size: 13px; font-family: 'DejaVu Sans'; text-anchor: end; fill: #c9d1d9" x="32.052813" y="396.595547" transform="rotate(-0 32.052813 396.595547)">0</text>
     </g>
    </g>
    <g id="ytick_2">
     <g id="line2d_6">
      <g>
       <use xlink:href="#m5b84f151af" x="39.052813" y="324.504056" style="fill: #c9d1d9; stroke: #c9d1d9; stroke-width: 0.8"/>
      </g>
     </g>
     <g id="text_4">
      <text style="font-size: 13px; font-family: 'DejaVu Sans'; text-anchor: end; fill: #c9d1d9" x="32.052813" y="329.44304" transform="rotate(-0 32.052813 329.44304)">1</text>
     </g>
    </g>
    <g id="ytick_3">
     <g id="line2d_7">
      <g>
       <use xlink:href="#m5b84f151af" x="39.052813" y="257.351549" style="fill: #c9d1d9; stroke: #c9d1d9; stroke-width: 0.8"/>
      </g>
     </g>
     <g id="text_5">
      <text style="font-size: 13px; font-family: 'DejaVu Sans'; text-anchor: end; fill: #c9d1d9" x="32.052813" y="262.290533" transform="rotate(-0 32.052813 262.290533)">2</text>
     </g>
    </g>
    <g id="ytick_4">
     <g id="line2d_8">
      <g>
       <use xlink:href="#m5b84f151af" x="39.052813" y="190.199042" style="fill: #c9d1d9; stroke: #c9d1d9; stroke-width: 0.8"/>
      </g>
     </g>
     <g id="text_6">
      <text style="font-size: 13px; font-family: 'DejaVu Sans'; text-anchor: end; fill: #c9d1d9" x="32.052813" y="195.138026" transform="rotate(-0 32.052813 195.138026)">3</text>
     </g>
    </g>
    <g id="ytick_5">
     <g id="line2d_9">
      <g>
       <use xlink:href="#m5b84f151af" x="39.052813" y="123.046535" style="fill: #c9d1d9; stroke: #c9d1d9; stroke-width: 0.8"/>
      </g>
     </g>
     <g id="text_7">
      <text style="font-size: 13px; font-family: 'DejaVu Sans'; text-anchor: end; fill: #c9d1d9" x="32.052813" y="127.985519" transform="rotate(-0 32.052813 127.985519)">4</text>
     </g>
    </g>
    <g id="ytick_6">
     <g id="line2d_10">
      <g>
       <use xlink:href="#m5b84f151af" x="39.052813" y="55.894028" style="fill: #c9d1d9; stroke: #c9d1d9; stroke-width: 0.8"/>
      </g>
     </g>
     <g id="text_8">
      <text style="font-size: 13px; font-family: 'DejaVu Sans'; text-anchor: end; fill: #c9d1d9" x="32.052813" y="60.833012" transform="rotate(-0 32.052813 60.833012)">5</text>
     </g>
    </g>
    <g id="text_9">
     <text style="font-size: 13px; font-family: 'DejaVu Sans'; text-anchor: middle; fill: #f0f6fc" x="17.077969" y="215.196562" transform="rotate(-90 17.077969 215.196562)">Tokens/Sec</text>
    </g>
   </g>
   <g id="patch_3">
    <path d="M 82.604456 391.656562 
L 136.761941 391.656562 
Q 150.301312 391.656562 150.301312 390.313512 
L 150.301312 94.842482 
Q 150.301312 93.499432 136.761941 93.499432 
L 82.604456 93.499432 
Q 69.065085 93.499432 69.065085 94.842482 
L 69.065085 390.313512 
Q 69.065085 391.656562 82.604456 391.656562 
z
" clip-path="url(#p1514fb237f)" style="fill: #4f8ef7"/>
   </g>
   <g id="patch_4">
    <path d="M 421.088735 391.656562 
L 475.24622 391.656562 
Q 488.785591 391.656562 488.785591 390.313512 
L 488.785591 88.798756 
Q 488.785591 87.455706 475.24622 87.455706 
L 421.088735 87.455706 
Q 407.549364 87.455706 407.549364 88.798756 
L 407.549364 390.313512 
Q 407.549364 391.656562 421.088735 391.656562 
z
" clip-path="url(#p1514fb237f)" style="fill: #4f8ef7"/>
   </g>
   <g id="patch_5">
    <path d="M 172.866931 391.656562 
L 227.024415 391.656562 
Q 240.563787 391.656562 240.563787 390.313512 
L 240.563787 90.813332 
Q 240.563787 89.470281 227.024415 89.470281 
L 172.866931 89.470281 
Q 159.32756 89.470281 159.32756 90.813332 
L 159.32756 390.313512 
Q 159.32756 391.656562 172.866931 391.656562 
z
" clip-path="url(#p1514fb237f)" style="fill: #06b6d4"/>
   </g>
   <g id="patch_6">
    <path d="M 511.35121 391.656562 
L 565.508694 391.656562 
Q 579.048065 391.656562 579.048065 390.313512 
L 579.048065 86.112656 
Q 579.048065 84.769606 565.508694 84.769606 
L 511.35121 84.769606 
Q 497.811838 84.769606 497.811838 86.112656 
L 497.811838 390.313512 
Q 497.811838 391.656562 511.35121 391.656562 
z
" clip-path="url(#p1514fb237f)" style="fill: #06b6d4"/>
   </g>
   <g id="patch_7">
    <path d="M 263.129405 391.656562 
L 317.28689 391.656562 
Q 330.826261 391.656562 330.826261 390.313512 
L 330.826261 90.813332 
Q 330.826261 89.470281 317.28689 89.470281 
L 263.129405 89.470281 
Q 249.590034 89.470281 249.590034 90.813332 
L 249.590034 390.313512 
Q 249.590034 391.656562 263.129405 391.656562 
z
" clip-path="url(#p1514fb237f)" style="fill: #22c55e"/>
   </g>
   <g id="patch_8">
    <path d="M 601.613684 391.656562 
L 655.771169 391.656562 
Q 669.31054 391.656562 669.31054 390.313512 
L 669.31054 86.784181 
Q 669.31054 85.441131 655.771169 85.441131 
L 601.613684 85.441131 
Q 588.074313 85.441131 588.074313 86.784181 
L 588.074313 390.313512 
Q 588.074313 391.656562 601.613684 391.656562 
z
" clip-path="url(#p1514fb237f)" style="fill: #22c55e"/>
   </g>
   <g id="patch_9">
    <path d="M 39.052813 391.656562 
L 39.052813 38.736562 
" style="fill: none; stroke: #30363d; stroke-width: 0.8; stroke-linejoin: miter; stroke-linecap: square"/>
   </g>
   <g id="patch_10">
    <path d="M 39.052813 391.656562 
L 699.322813 391.656562 
" style="fill: none; stroke: #30363d; stroke-width: 0.8; stroke-linejoin: miter; stroke-linecap: square"/>
   </g>
   <g id="text_10">
    <text style="font-size: 10px; font-family: 'DejaVu Sans'; text-anchor: middle; fill: #f0f6fc" x="109.683199" y="86.81644" transform="rotate(-0 109.683199 86.81644)">4.4</text>
   </g>
   <g id="text_11">
    <text style="font-size: 10px; font-family: 'DejaVu Sans'; text-anchor: middle; fill: #f0f6fc" x="448.167478" y="80.772714" transform="rotate(-0 448.167478 80.772714)">4.5</text>
   </g>
   <g id="text_12">
    <text style="font-size: 10px; font-family: 'DejaVu Sans'; text-anchor: middle; fill: #f0f6fc" x="199.945673" y="82.78729" transform="rotate(-0 199.945673 82.78729)">4.5</text>
   </g>
   <g id="text_13">
    <text style="font-size: 10px; font-family: 'DejaVu Sans'; text-anchor: middle; fill: #f0f6fc" x="538.429952" y="78.086614" transform="rotate(-0 538.429952 78.086614)">4.6</text>
   </g>
   <g id="text_14">
    <text style="font-size: 10px; font-family: 'DejaVu Sans'; text-anchor: middle; fill: #f0f6fc" x="290.208147" y="82.78729" transform="rotate(-0 290.208147 82.78729)">4.5</text>
   </g>
   <g id="text_15">
    <text style="font-size: 10px; font-family: 'DejaVu Sans'; text-anchor: middle; fill: #f0f6fc" x="628.692426" y="78.758139" transform="rotate(-0 628.692426 78.758139)">4.6</text>
   </g>
   <g id="text_16">
    <text style="font-weight: 700; font-size: 18px; font-family: 'DejaVu Sans'; text-anchor: middle; fill: #ffffff" x="369.187813" y="20.736562" transform="rotate(-0 369.187813 20.736562)">Gen-AI cpu tg128</text>
   </g>
   <g id="legend_1">
    <g id="patch_11">
     <path d="M 50.752813 60.314531 
L 76.752813 60.314531 
L 76.752813 51.214531 
L 50.752813 51.214531 
z
" style="fill: #4f8ef7"/>
    </g>
    <g id="text_17">
     <text style="font-size: 13px; font-family: 'DejaVu Sans'; text-anchor: start; fill: #f0f6fc" x="87.152813" y="60.314531" transform="rotate(-0 87.152813 60.314531)">v1-build</text>
    </g>
    <g id="patch_12">
     <path d="M 165.776406 60.314531 
L 191.776406 60.314531 
L 191.776406 51.214531 
L 165.776406 51.214531 
z
" style="fill: #06b6d4"/>
    </g>
    <g id="text_18">
     <text style="font-size: 13px; font-family: 'DejaVu Sans'; text-anchor: start; fill: #f0f6fc" x="202.176406" y="60.314531" transform="rotate(-0 202.176406 60.314531)">v3-build</text>
    </g>
    <g id="patch_13">
     <path d="M 280.8 60.314531 
L 306.8 60.314531 
L 306.8 51.214531 
L 280.8 51.214531 
z
" style="fill: #22c55e"/>
    </g>
    <g id="text_19">
     <text style="font-size: 13px; font-family: 'DejaVu Sans'; text-anchor: start; fill: #f0f6fc" x="317.2" y="60.314531" transform="rotate(-0 317.2 60.314531)">native-build</text>
    </g>
   </g>
  </g>
 </g>
 <defs>
  <clipPath id="p1514fb237f">
   <rect x="39.052813" y="38.736562" width="660.27" height="352.92"/>
  </clipPath>
 </defs>
</svg>
