<?xml version="1.0" encoding="utf-8" standalone="no"?>
<!DOCTYPE svg PUBLIC "-//W3C//DTD SVG 1.1//EN"
  "http://www.w3.org/Graphics/SVG/1.1/DTD/svg11.dtd">
<svg xmlns:xlink="http://www.w3.org/1999/xlink" width="706.629063pt" height="418.57875pt" viewBox="0 0 706.629063 418.57875" xmlns="http://www.w3.org/2000/svg" version="1.1">
 <metadata>
  <rdf:RDF xmlns:dc="http://purl.org/dc/elements/1.1/" xmlns:cc="http://creativecommons.org/ns#" xmlns:rdf="http://www.w3.org/1999/02/22-rdf-syntax-ns#">
   <cc:Work>
    <dc:type rdf:resource="http://purl.org/dc/dcmitype/StillImage"/>
    <dc:date>2026-06-30T21:07:55.316642</dc:date>
    <dc:format>image/svg+xml</dc:format>
    <dc:creator>
     <cc:Agent>
      <dc:title>Matplotlib v3.10.9, https://matplotlib.org/</dc:title>
     </cc:Agent>
    </dc:creator>
   </cc:Work>
  </rdf:RDF>
 </metadata>
 <defs>
  <style type="text/css">*{stroke-linejoin: round; stroke-linecap: butt}</style>
 </defs>
 <g id="figure_1">
  <g id="patch_1">
   <path d="M 0 418.57875 
L 706.629063 418.57875 
L 706.629063 0 
L 0 0 
z
" style="fill: #0d1117"/>
  </g>
  <g id="axes_1">
   <g id="patch_2">
    <path d="M 80.409063 391.797187 
L 699.429062 391.797187 
L 699.429062 38.877187 
L 80.409063 38.877187 
z
" style="fill: #161b22"/>
   </g>
   <g id="matplotlib.axis_1">
    <g id="xtick_1">
     <g id="line2d_1">
      <path d="M 165.419546 391.797187 
L 165.419546 38.877187 
" clip-path="url(#pbb551a4761)" style="fill: none; stroke-dasharray: 2.96,1.28; stroke-dashoffset: 0; stroke: #30363d; stroke-opacity: 0.35; stroke-width: 0.8"/>
     </g>
     <g id="line2d_2">
      <defs>
       <path id="ma825d8d421" d="M 0 0 
L 0 3.5 
" style="stroke: #c9d1d9; stroke-width: 0.8"/>
      </defs>
      <g>
       <use xlink:href="#ma825d8d421" x="165.419546" y="391.797187" style="fill: #c9d1d9; stroke: #c9d1d9; stroke-width: 0.8"/>
      </g>
     </g>
     <g id="text_1">
      <text style="font-size: 13px; font-family: 'DejaVu Sans'; text-anchor: middle; fill: #c9d1d9" x="165.419546" y="408.675156" transform="rotate(-0 165.419546 408.675156)">cachyos-bore-v1</text>
     </g>
    </g>
    <g id="xtick_2">
     <g id="line2d_3">
      <path d="M 315.08589 391.797187 
L 315.08589 38.877187 
" clip-path="url(#pbb551a4761)" style="fill: none; stroke-dasharray: 2.96,1.28; stroke-dashoffset: 0; stroke: #30363d; stroke-opacity: 0.35; stroke-width: 0.8"/>
     </g>
     <g id="line2d_4">
      <g>
       <use xlink:href="#ma825d8d421" x="315.08589" y="391.797187" style="fill: #c9d1d9; stroke: #c9d1d9; stroke-width: 0.8"/>
      </g>
     </g>
     <g id="text_2">
      <text style="font-size: 13px; font-family: 'DejaVu Sans'; text-anchor: middle; fill: #c9d1d9" x="315.08589" y="408.675156" transform="rotate(-0 315.08589 408.675156)">cachyos-bore-v3</text>
     </g>
    </g>
    <g id="xtick_3">
     <g id="line2d_5">
      <path d="M 464.752235 391.797187 
L 464.752235 38.877187 
" clip-path="url(#pbb551a4761)" style="fill: none; stroke-dasharray: 2.96,1.28; stroke-dashoffset: 0; stroke: #30363d; stroke-opacity: 0.35; stroke-width: 0.8"/>
     </g>
     <g id="line2d_6">
      <g>
       <use xlink:href="#ma825d8d421" x="464.752235" y="391.797187" style="fill: #c9d1d9; stroke: #c9d1d9; stroke-width: 0.8"/>
      </g>
     </g>
     <g id="text_3">
      <text style="font-size: 13px; font-family: 'DejaVu Sans'; text-anchor: middle; fill: #c9d1d9" x="464.752235" y="408.675156" transform="rotate(-0 464.752235 408.675156)">linux-v3</text>
     </g>
    </g>
    <g id="xtick_4">
     <g id="line2d_7">
      <path d="M 614.418579 391.797187 
L 614.418579 38.877187 
" clip-path="url(#pbb551a4761)" style="fill: none; stroke-dasharray: 2.96,1.28; stroke-dashoffset: 0; stroke: #30363d; stroke-opacity: 0.35; stroke-width: 0.8"/>
     </g>
     <g id="line2d_8">
      <g>
       <use xlink:href="#ma825d8d421" x="614.418579" y="391.797187" style="fill: #c9d1d9; stroke: #c9d1d9; stroke-width: 0.8"/>
      </g>
     </g>
     <g id="text_4">
      <text style="font-size: 13px; font-family: 'DejaVu Sans'; text-anchor: middle; fill: #c9d1d9" x="614.418579" y="408.675156" transform="rotate(-0 614.418579 408.675156)">linux-v1</text>
     </g>
    </g>
   </g>
   <g id="matplotlib.axis_2">
    <g id="ytick_1">
     <g id="line2d_9">
      <defs>
       <path id="m04d28f6845" d="M 0 0 
L -3.5 0 
" style="stroke: #c9d1d9; stroke-width: 0.8"/>
      </defs>
      <g>
       <use xlink:href="#m04d28f6845" x="80.409063" y="391.797187" style="fill: #c9d1d9; stroke: #c9d1d9; stroke-width: 0.8"/>
      </g>
     </g>
     <g id="text_5">
      <text style="font-size: 13px; font-family: 'DejaVu Sans'; text-anchor: end; fill: #c9d1d9" x="73.409063" y="396.736172" transform="rotate(-0 73.409063 396.736172)">0</text>
     </g>
    </g>
    <g id="ytick_2">
     <g id="line2d_10">
      <g>
       <use xlink:href="#m04d28f6845" x="80.409063" y="339.839163" style="fill: #c9d1d9; stroke: #c9d1d9; stroke-width: 0.8"/>
      </g>
     </g>
     <g id="text_6">
      <text style="font-size: 13px; font-family: 'DejaVu Sans'; text-anchor: end; fill: #c9d1d9" x="73.409063" y="344.778147" transform="rotate(-0 73.409063 344.778147)">50000</text>
     </g>
    </g>
    <g id="ytick_3">
     <g id="line2d_11">
      <g>
       <use xlink:href="#m04d28f6845" x="80.409063" y="287.881138" style="fill: #c9d1d9; stroke: #c9d1d9; stroke-width: 0.8"/>
      </g>
     </g>
     <g id="text_7">
      <text style="font-size: 13px; font-family: 'DejaVu Sans'; text-anchor: end; fill: #c9d1d9" x="73.409063" y="292.820122" transform="rotate(-0 73.409063 292.820122)">100000</text>
     </g>
    </g>
    <g id="ytick_4">
     <g id="line2d_12">
      <g>
       <use xlink:href="#m04d28f6845" x="80.409063" y="235.923113" style="fill: #c9d1d9; stroke: #c9d1d9; stroke-width: 0.8"/>
      </g>
     </g>
     <g id="text_8">
      <text style="font-size: 13px; font-family: 'DejaVu Sans'; text-anchor: end; fill: #c9d1d9" x="73.409063" y="240.862097" transform="rotate(-0 73.409063 240.862097)">150000</text>
     </g>
    </g>
    <g id="ytick_5">
     <g id="line2d_13">
      <g>
       <use xlink:href="#m04d28f6845" x="80.409063" y="183.965088" style="fill: #c9d1d9; stroke: #c9d1d9; stroke-width: 0.8"/>
      </g>
     </g>
     <g id="text_9">
      <text style="font-size: 13px; font-family: 'DejaVu Sans'; text-anchor: end; fill: #c9d1d9" x="73.409063" y="188.904072" transform="rotate(-0 73.409063 188.904072)">200000</text>
     </g>
    </g>
    <g id="ytick_6">
     <g id="line2d_14">
      <g>
       <use xlink:href="#m04d28f6845" x="80.409063" y="132.007063" style="fill: #c9d1d9; stroke: #c9d1d9; stroke-width: 0.8"/>
      </g>
     </g>
     <g id="text_10">
      <text style="font-size: 13px; font-family: 'DejaVu Sans'; text-anchor: end; fill: #c9d1d9" x="73.409063" y="136.946047" transform="rotate(-0 73.409063 136.946047)">250000</text>
     </g>
    </g>
    <g id="ytick_7">
     <g id="line2d_15">
      <g>
       <use xlink:href="#m04d28f6845" x="80.409063" y="80.049038" style="fill: #c9d1d9; stroke: #c9d1d9; stroke-width: 0.8"/>
      </g>
     </g>
     <g id="text_11">
      <text style="font-size: 13px; font-family: 'DejaVu Sans'; text-anchor: end; fill: #c9d1d9" x="73.409063" y="84.988023" transform="rotate(-0 73.409063 84.988023)">300000</text>
     </g>
    </g>
    <g id="text_12">
     <text style="font-size: 13px; font-family: 'DejaVu Sans'; text-anchor: middle; fill: #f0f6fc" x="17.077969" y="215.337187" transform="rotate(-90 17.077969 215.337187)">KB/s</text>
    </g>
   </g>
   <g id="patch_3">
    <path d="M 114.532989 391.797187 
L 156.439565 391.797187 
Q 162.426219 391.797187 162.426219 391.797167 
L 162.426219 191.481357 
Q 162.426219 191.481336 156.439565 191.481336 
L 114.532989 191.481336 
Q 108.546335 191.481336 108.546335 191.481357 
L 108.546335 391.797167 
Q 108.546335 391.797187 114.532989 391.797187 
z
" clip-path="url(#pbb551a4761)" style="fill: #4f8ef7"/>
   </g>
   <g id="patch_4">
    <path d="M 264.199333 391.797187 
L 306.10591 391.797187 
Q 312.092563 391.797187 312.092563 391.797167 
L 312.092563 189.975613 
Q 312.092563 189.975592 306.10591 189.975592 
L 264.199333 189.975592 
Q 258.21268 189.975592 258.21268 189.975613 
L 258.21268 391.797167 
Q 258.21268 391.797187 264.199333 391.797187 
z
" clip-path="url(#pbb551a4761)" style="fill: #4f8ef7"/>
   </g>
   <g id="patch_5">
    <path d="M 413.865678 391.797187 
L 455.772254 391.797187 
Q 461.758908 391.797187 461.758908 391.797167 
L 461.758908 188.820067 
Q 461.758908 188.820046 455.772254 188.820046 
L 413.865678 188.820046 
Q 407.879024 188.820046 407.879024 188.820067 
L 407.879024 391.797167 
Q 407.879024 391.797187 413.865678 391.797187 
z
" clip-path="url(#pbb551a4761)" style="fill: #4f8ef7"/>
   </g>
   <g id="patch_6">
    <path d="M 563.532022 391.797187 
L 605.438598 391.797187 
Q 611.425252 391.797187 611.425252 391.797167 
L 611.425252 189.988083 
Q 611.425252 189.988062 605.438598 189.988062 
L 563.532022 189.988062 
Q 557.545368 189.988062 557.545368 189.988083 
L 557.545368 391.797167 
Q 557.545368 391.797187 563.532022 391.797187 
z
" clip-path="url(#pbb551a4761)" style="fill: #4f8ef7"/>
   </g>
   <g id="patch_7">
    <path d="M 174.399527 391.797187 
L 216.306103 391.797187 
Q 222.292757 391.797187 222.292757 391.797167 
L 222.292757 84.910252 
Q 222.292757 84.910231 216.306103 84.910231 
L 174.399527 84.910231 
Q 168.412873 84.910231 168.412873 84.910252 
L 168.412873 391.797167 
Q 168.412873 391.797187 174.399527 391.797187 
z
" clip-path="url(#pbb551a4761)" style="fill: #06b6d4"/>
   </g>
   <g id="patch_8">
    <path d="M 324.065871 391.797187 
L 365.972447 391.797187 
Q 371.959101 391.797187 371.959101 391.797167 
L 371.959101 89.869126 
Q 371.959101 89.869105 365.972447 89.869105 
L 324.065871 89.869105 
Q 318.079217 89.869105 318.079217 89.869126 
L 318.079217 391.797167 
Q 318.079217 391.797187 324.065871 391.797187 
z
" clip-path="url(#pbb551a4761)" style="fill: #06b6d4"/>
   </g>
   <g id="patch_9">
    <path d="M 473.732215 391.797187 
L 515.638792 391.797187 
Q 521.625445 391.797187 521.625445 391.797167 
L 521.625445 87.01663 
Q 521.625445 87.016609 515.638792 87.016609 
L 473.732215 87.016609 
Q 467.745562 87.016609 467.745562 87.01663 
L 467.745562 391.797167 
Q 467.745562 391.797187 473.732215 391.797187 
z
" clip-path="url(#pbb551a4761)" style="fill: #06b6d4"/>
   </g>
   <g id="patch_10">
    <path d="M 623.39856 391.797187 
L 665.305136 391.797187 
Q 671.29179 391.797187 671.29179 391.797167 
L 671.29179 86.042937 
Q 671.29179 86.042916 665.305136 86.042916 
L 623.39856 86.042916 
Q 617.411906 86.042916 617.411906 86.042937 
L 617.411906 391.797167 
Q 617.411906 391.797187 623.39856 391.797187 
z
" clip-path="url(#pbb551a4761)" style="fill: #06b6d4"/>
   </g>
   <g id="patch_11">
    <path d="M 80.409063 391.797187 
L 80.409063 38.877187 
" style="fill: none; stroke: #30363d; stroke-width: 0.8; stroke-linejoin: miter; stroke-linecap: square"/>
   </g>
   <g id="patch_12">
    <path d="M 80.409062 391.797187 
L 699.429062 391.797187 
" style="fill: none; stroke: #30363d; stroke-width: 0.8; stroke-linejoin: miter; stroke-linecap: square"/>
   </g>
   <g id="text_13">
    <text style="font-size: 10px; font-family: 'DejaVu Sans'; text-anchor: middle; fill: #f0f6fc" x="135.486277" y="184.798344" transform="rotate(-0 135.486277 184.798344)">192767.0</text>
   </g>
   <g id="text_14">
    <text style="font-size: 10px; font-family: 'DejaVu Sans'; text-anchor: middle; fill: #f0f6fc" x="285.152621" y="183.2926" transform="rotate(-0 285.152621 183.2926)">194216.0</text>
   </g>
   <g id="text_15">
    <text style="font-size: 10px; font-family: 'DejaVu Sans'; text-anchor: middle; fill: #f0f6fc" x="434.818966" y="182.137054" transform="rotate(-0 434.818966 182.137054)">195328.0</text>
   </g>
   <g id="text_16">
    <text style="font-size: 10px; font-family: 'DejaVu Sans'; text-anchor: middle; fill: #f0f6fc" x="584.48531" y="183.30507" transform="rotate(-0 584.48531 183.30507)">194204.0</text>
   </g>
   <g id="text_17">
    <text style="font-size: 10px; font-family: 'DejaVu Sans'; text-anchor: middle; fill: #f0f6fc" x="195.352815" y="78.227239" transform="rotate(-0 195.352815 78.227239)">295322.0</text>
   </g>
   <g id="text_18">
    <text style="font-size: 10px; font-family: 'DejaVu Sans'; text-anchor: middle; fill: #f0f6fc" x="345.019159" y="83.186113" transform="rotate(-0 345.019159 83.186113)">290550.0</text>
   </g>
   <g id="text_19">
    <text style="font-size: 10px; font-family: 'DejaVu Sans'; text-anchor: middle; fill: #f0f6fc" x="494.685504" y="80.333617" transform="rotate(-0 494.685504 80.333617)">293295.0</text>
   </g>
   <g id="text_20">
    <text style="font-size: 10px; font-family: 'DejaVu Sans'; text-anchor: middle; fill: #f0f6fc" x="644.351848" y="79.359924" transform="rotate(-0 644.351848 79.359924)">294232.0</text>
   </g>
   <g id="text_21">
    <text style="font-weight: 700; font-size: 18px; font-family: 'DejaVu Sans'; text-anchor: middle; fill: #ffffff" x="389.919062" y="20.877187" transform="rotate(-0 389.919062 20.877187)">sha256 cryptograph</text>
   </g>
   <g id="legend_1">
    <g id="patch_13">
     <path d="M 92.109063 60.455156 
L 118.109063 60.455156 
L 118.109063 51.355156 
L 92.109063 51.355156 
z
" style="fill: #4f8ef7"/>
    </g>
    <g id="text_22">
     <text style="font-size: 13px; font-family: 'DejaVu Sans'; text-anchor: start; fill: #f0f6fc" x="128.509062" y="60.455156" transform="rotate(-0 128.509062 60.455156)">256 byte</text>
    </g>
    <g id="patch_14">
     <path d="M 212.497187 60.455156 
L 238.497187 60.455156 
L 238.497187 51.355156 
L 212.497187 51.355156 
z
" style="fill: #06b6d4"/>
    </g>
    <g id="text_23">
     <text style="font-size: 13px; font-family: 'DejaVu Sans'; text-anchor: start; fill: #f0f6fc" x="248.897188" y="60.455156" transform="rotate(-0 248.897188 60.455156)">16384 byte</text>
    </g>
   </g>
  </g>
 </g>
 <defs>
  <clipPath id="pbb551a4761">
   <rect x="80.409063" y="38.877187" width="619.02" height="352.92"/>
  </clipPath>
 </defs>
</svg>
