<?xml version="1.0" encoding="utf-8" standalone="no"?>
<!DOCTYPE svg PUBLIC "-//W3C//DTD SVG 1.1//EN"
  "http://www.w3.org/Graphics/SVG/1.1/DTD/svg11.dtd">
<svg xmlns:xlink="http://www.w3.org/1999/xlink" width="706.565312pt" height="418.57875pt" viewBox="0 0 706.565312 418.57875" xmlns="http://www.w3.org/2000/svg" version="1.1">
 <metadata>
  <rdf:RDF xmlns:dc="http://purl.org/dc/elements/1.1/" xmlns:cc="http://creativecommons.org/ns#" xmlns:rdf="http://www.w3.org/1999/02/22-rdf-syntax-ns#">
   <cc:Work>
    <dc:type rdf:resource="http://purl.org/dc/dcmitype/StillImage"/>
    <dc:date>2026-06-30T21:07:54.490630</dc:date>
    <dc:format>image/svg+xml</dc:format>
    <dc:creator>
     <cc:Agent>
      <dc:title>Matplotlib v3.10.9, https://matplotlib.org/</dc:title>
     </cc:Agent>
    </dc:creator>
   </cc:Work>
  </rdf:RDF>
 </metadata>
 <defs>
  <style type="text/css">*{stroke-linejoin: round; stroke-linecap: butt}</style>
 </defs>
 <g id="figure_1">
  <g id="patch_1">
   <path d="M 0 418.57875 
L 706.565312 418.57875 
L 706.565312 0 
L 0 0 
z
" style="fill: #0d1117"/>
  </g>
  <g id="axes_1">
   <g id="patch_2">
    <path d="M 55.595313 391.797187 
L 699.365313 391.797187 
L 699.365313 38.877187 
L 55.595313 38.877187 
z
" style="fill: #161b22"/>
   </g>
   <g id="matplotlib.axis_1">
    <g id="xtick_1">
     <g id="line2d_1">
      <path d="M 144.004732 391.797187 
L 144.004732 38.877187 
" clip-path="url(#p1341209eb3)" style="fill: none; stroke-dasharray: 2.96,1.28; stroke-dashoffset: 0; stroke: #30363d; stroke-opacity: 0.35; stroke-width: 0.8"/>
     </g>
     <g id="line2d_2">
      <defs>
       <path id="mb670a81128" d="M 0 0 
L 0 3.5 
" style="stroke: #c9d1d9; stroke-width: 0.8"/>
      </defs>
      <g>
       <use xlink:href="#mb670a81128" x="144.004732" y="391.797187" style="fill: #c9d1d9; stroke: #c9d1d9; stroke-width: 0.8"/>
      </g>
     </g>
     <g id="text_1">
      <text style="font-size: 13px; font-family: 'DejaVu Sans'; text-anchor: middle; fill: #c9d1d9" x="144.004732" y="408.675156" transform="rotate(-0 144.004732 408.675156)">linux + v1</text>
     </g>
    </g>
    <g id="xtick_2">
     <g id="line2d_3">
      <path d="M 299.655119 391.797187 
L 299.655119 38.877187 
" clip-path="url(#p1341209eb3)" style="fill: none; stroke-dasharray: 2.96,1.28; stroke-dashoffset: 0; stroke: #30363d; stroke-opacity: 0.35; stroke-width: 0.8"/>
     </g>
     <g id="line2d_4">
      <g>
       <use xlink:href="#mb670a81128" x="299.655119" y="391.797187" style="fill: #c9d1d9; stroke: #c9d1d9; stroke-width: 0.8"/>
      </g>
     </g>
     <g id="text_2">
      <text style="font-size: 13px; font-family: 'DejaVu Sans'; text-anchor: middle; fill: #c9d1d9" x="299.655119" y="408.675156" transform="rotate(-0 299.655119 408.675156)">linux + v3</text>
     </g>
    </g>
    <g id="xtick_3">
     <g id="line2d_5">
      <path d="M 455.305506 391.797187 
L 455.305506 38.877187 
" clip-path="url(#p1341209eb3)" style="fill: none; stroke-dasharray: 2.96,1.28; stroke-dashoffset: 0; stroke: #30363d; stroke-opacity: 0.35; stroke-width: 0.8"/>
     </g>
     <g id="line2d_6">
      <g>
       <use xlink:href="#mb670a81128" x="455.305506" y="391.797187" style="fill: #c9d1d9; stroke: #c9d1d9; stroke-width: 0.8"/>
      </g>
     </g>
     <g id="text_3">
      <text style="font-size: 13px; font-family: 'DejaVu Sans'; text-anchor: middle; fill: #c9d1d9" x="455.305506" y="408.675156" transform="rotate(-0 455.305506 408.675156)">cachy-bore + v1</text>
     </g>
    </g>
    <g id="xtick_4">
     <g id="line2d_7">
      <path d="M 610.955893 391.797187 
L 610.955893 38.877187 
" clip-path="url(#p1341209eb3)" style="fill: none; stroke-dasharray: 2.96,1.28; stroke-dashoffset: 0; stroke: #30363d; stroke-opacity: 0.35; stroke-width: 0.8"/>
     </g>
     <g id="line2d_8">
      <g>
       <use xlink:href="#mb670a81128" x="610.955893" y="391.797187" style="fill: #c9d1d9; stroke: #c9d1d9; stroke-width: 0.8"/>
      </g>
     </g>
     <g id="text_4">
      <text style="font-size: 13px; font-family: 'DejaVu Sans'; text-anchor: middle; fill: #c9d1d9" x="610.955893" y="408.675156" transform="rotate(-0 610.955893 408.675156)">cachy-bore + v3</text>
     </g>
    </g>
   </g>
   <g id="matplotlib.axis_2">
    <g id="ytick_1">
     <g id="line2d_9">
      <defs>
       <path id="m91b9bb6f1d" d="M 0 0 
L -3.5 0 
" style="stroke: #c9d1d9; stroke-width: 0.8"/>
      </defs>
      <g>
       <use xlink:href="#m91b9bb6f1d" x="55.595313" y="391.797187" style="fill: #c9d1d9; stroke: #c9d1d9; stroke-width: 0.8"/>
      </g>
     </g>
     <g id="text_5">
      <text style="font-size: 13px; font-family: 'DejaVu Sans'; text-anchor: end; fill: #c9d1d9" x="48.595313" y="396.736172" transform="rotate(-0 48.595313 396.736172)">0</text>
     </g>
    </g>
    <g id="ytick_2">
     <g id="line2d_10">
      <g>
       <use xlink:href="#m91b9bb6f1d" x="55.595313" y="337.466488" style="fill: #c9d1d9; stroke: #c9d1d9; stroke-width: 0.8"/>
      </g>
     </g>
     <g id="text_6">
      <text style="font-size: 13px; font-family: 'DejaVu Sans'; text-anchor: end; fill: #c9d1d9" x="48.595313" y="342.405472" transform="rotate(-0 48.595313 342.405472)">20</text>
     </g>
    </g>
    <g id="ytick_3">
     <g id="line2d_11">
      <g>
       <use xlink:href="#m91b9bb6f1d" x="55.595313" y="283.135788" style="fill: #c9d1d9; stroke: #c9d1d9; stroke-width: 0.8"/>
      </g>
     </g>
     <g id="text_7">
      <text style="font-size: 13px; font-family: 'DejaVu Sans'; text-anchor: end; fill: #c9d1d9" x="48.595313" y="288.074773" transform="rotate(-0 48.595313 288.074773)">40</text>
     </g>
    </g>
    <g id="ytick_4">
     <g id="line2d_12">
      <g>
       <use xlink:href="#m91b9bb6f1d" x="55.595313" y="228.805089" style="fill: #c9d1d9; stroke: #c9d1d9; stroke-width: 0.8"/>
      </g>
     </g>
     <g id="text_8">
      <text style="font-size: 13px; font-family: 'DejaVu Sans'; text-anchor: end; fill: #c9d1d9" x="48.595313" y="233.744073" transform="rotate(-0 48.595313 233.744073)">60</text>
     </g>
    </g>
    <g id="ytick_5">
     <g id="line2d_13">
      <g>
       <use xlink:href="#m91b9bb6f1d" x="55.595313" y="174.474389" style="fill: #c9d1d9; stroke: #c9d1d9; stroke-width: 0.8"/>
      </g>
     </g>
     <g id="text_9">
      <text style="font-size: 13px; font-family: 'DejaVu Sans'; text-anchor: end; fill: #c9d1d9" x="48.595313" y="179.413374" transform="rotate(-0 48.595313 179.413374)">80</text>
     </g>
    </g>
    <g id="ytick_6">
     <g id="line2d_14">
      <g>
       <use xlink:href="#m91b9bb6f1d" x="55.595313" y="120.14369" style="fill: #c9d1d9; stroke: #c9d1d9; stroke-width: 0.8"/>
      </g>
     </g>
     <g id="text_10">
      <text style="font-size: 13px; font-family: 'DejaVu Sans'; text-anchor: end; fill: #c9d1d9" x="48.595313" y="125.082674" transform="rotate(-0 48.595313 125.082674)">100</text>
     </g>
    </g>
    <g id="ytick_7">
     <g id="line2d_15">
      <g>
       <use xlink:href="#m91b9bb6f1d" x="55.595313" y="65.81299" style="fill: #c9d1d9; stroke: #c9d1d9; stroke-width: 0.8"/>
      </g>
     </g>
     <g id="text_11">
      <text style="font-size: 13px; font-family: 'DejaVu Sans'; text-anchor: end; fill: #c9d1d9" x="48.595313" y="70.751974" transform="rotate(-0 48.595313 70.751974)">120</text>
     </g>
    </g>
    <g id="text_12">
     <text style="font-size: 13px; font-family: 'DejaVu Sans'; text-anchor: middle; fill: #f0f6fc" x="17.077969" y="215.337187" transform="rotate(-90 17.077969 215.337187)">Seconds</text>
    </g>
   </g>
   <g id="patch_3">
    <path d="M 91.083601 391.797187 
L 134.665709 391.797187 
Q 140.891724 391.797187 140.891724 391.742857 
L 140.891724 84.964562 
Q 140.891724 84.910231 134.665709 84.910231 
L 91.083601 84.910231 
Q 84.857585 84.910231 84.857585 84.964562 
L 84.857585 391.742857 
Q 84.857585 391.797187 91.083601 391.797187 
z
" clip-path="url(#p1341209eb3)" style="fill: #4f8ef7"/>
   </g>
   <g id="patch_4">
    <path d="M 246.733988 391.797187 
L 290.316096 391.797187 
Q 296.542111 391.797187 296.542111 391.742857 
L 296.542111 86.458656 
Q 296.542111 86.404325 290.316096 86.404325 
L 246.733988 86.404325 
Q 240.507972 86.404325 240.507972 86.458656 
L 240.507972 391.742857 
Q 240.507972 391.797187 246.733988 391.797187 
z
" clip-path="url(#p1341209eb3)" style="fill: #4f8ef7"/>
   </g>
   <g id="patch_5">
    <path d="M 402.384374 391.797187 
L 445.966483 391.797187 
Q 452.192498 391.797187 452.192498 391.742857 
L 452.192498 85.589365 
Q 452.192498 85.535034 445.966483 85.535034 
L 402.384374 85.535034 
Q 396.158359 85.535034 396.158359 85.589365 
L 396.158359 391.742857 
Q 396.158359 391.797187 402.384374 391.797187 
z
" clip-path="url(#p1341209eb3)" style="fill: #4f8ef7"/>
   </g>
   <g id="patch_6">
    <path d="M 558.034761 391.797187 
L 601.61687 391.797187 
Q 607.842885 391.797187 607.842885 391.742857 
L 607.842885 86.730309 
Q 607.842885 86.675979 601.61687 86.675979 
L 558.034761 86.675979 
Q 551.808746 86.675979 551.808746 86.730309 
L 551.808746 391.742857 
Q 551.808746 391.797187 558.034761 391.797187 
z
" clip-path="url(#p1341209eb3)" style="fill: #4f8ef7"/>
   </g>
   <g id="patch_7">
    <path d="M 153.343755 391.797187 
L 196.925864 391.797187 
Q 203.151879 391.797187 203.151879 391.742857 
L 203.151879 274.30705 
Q 203.151879 274.252719 196.925864 274.252719 
L 153.343755 274.252719 
Q 147.11774 274.252719 147.11774 274.30705 
L 147.11774 391.742857 
Q 147.11774 391.797187 153.343755 391.797187 
z
" clip-path="url(#p1341209eb3)" style="fill: #06b6d4"/>
   </g>
   <g id="patch_8">
    <path d="M 308.994142 391.797187 
L 352.576251 391.797187 
Q 358.802266 391.797187 358.802266 391.742857 
L 358.802266 271.61768 
Q 358.802266 271.563349 352.576251 271.563349 
L 308.994142 271.563349 
Q 302.768127 271.563349 302.768127 271.61768 
L 302.768127 391.742857 
Q 302.768127 391.797187 308.994142 391.797187 
z
" clip-path="url(#p1341209eb3)" style="fill: #06b6d4"/>
   </g>
   <g id="patch_9">
    <path d="M 464.644529 391.797187 
L 508.226637 391.797187 
Q 514.452653 391.797187 514.452653 391.742857 
L 514.452653 273.247601 
Q 514.452653 273.19327 508.226637 273.19327 
L 464.644529 273.19327 
Q 458.418514 273.19327 458.418514 273.247601 
L 458.418514 391.742857 
Q 458.418514 391.797187 464.644529 391.797187 
z
" clip-path="url(#p1341209eb3)" style="fill: #06b6d4"/>
   </g>
   <g id="patch_10">
    <path d="M 620.294916 391.797187 
L 663.877024 391.797187 
Q 670.10304 391.797187 670.10304 391.742857 
L 670.10304 272.812955 
Q 670.10304 272.758625 663.877024 272.758625 
L 620.294916 272.758625 
Q 614.068901 272.758625 614.068901 272.812955 
L 614.068901 391.742857 
Q 614.068901 391.797187 620.294916 391.797187 
z
" clip-path="url(#p1341209eb3)" style="fill: #06b6d4"/>
   </g>
   <g id="patch_11">
    <path d="M 55.595313 391.797187 
L 55.595313 38.877187 
" style="fill: none; stroke: #30363d; stroke-width: 0.8; stroke-linejoin: miter; stroke-linecap: square"/>
   </g>
   <g id="patch_12">
    <path d="M 55.595313 391.797187 
L 699.365313 391.797187 
" style="fill: none; stroke: #30363d; stroke-width: 0.8; stroke-linejoin: miter; stroke-linecap: square"/>
   </g>
   <g id="text_13">
    <text style="font-size: 10px; font-family: 'DejaVu Sans'; text-anchor: middle; fill: #f0f6fc" x="112.874655" y="78.227239" transform="rotate(-0 112.874655 78.227239)">113.0</text>
   </g>
   <g id="text_14">
    <text style="font-size: 10px; font-family: 'DejaVu Sans'; text-anchor: middle; fill: #f0f6fc" x="268.525042" y="79.721333" transform="rotate(-0 268.525042 79.721333)">112.4</text>
   </g>
   <g id="text_15">
    <text style="font-size: 10px; font-family: 'DejaVu Sans'; text-anchor: middle; fill: #f0f6fc" x="424.175429" y="78.852042" transform="rotate(-0 424.175429 78.852042)">112.7</text>
   </g>
   <g id="text_16">
    <text style="font-size: 10px; font-family: 'DejaVu Sans'; text-anchor: middle; fill: #f0f6fc" x="579.825815" y="79.992987" transform="rotate(-0 579.825815 79.992987)">112.3</text>
   </g>
   <g id="text_17">
    <text style="font-size: 10px; font-family: 'DejaVu Sans'; text-anchor: middle; fill: #f0f6fc" x="175.13481" y="267.569727" transform="rotate(-0 175.13481 267.569727)">43.3</text>
   </g>
   <g id="text_18">
    <text style="font-size: 10px; font-family: 'DejaVu Sans'; text-anchor: middle; fill: #f0f6fc" x="330.785196" y="264.880358" transform="rotate(-0 330.785196 264.880358)">44.3</text>
   </g>
   <g id="text_19">
    <text style="font-size: 10px; font-family: 'DejaVu Sans'; text-anchor: middle; fill: #f0f6fc" x="486.435583" y="266.510278" transform="rotate(-0 486.435583 266.510278)">43.7</text>
   </g>
   <g id="text_20">
    <text style="font-size: 10px; font-family: 'DejaVu Sans'; text-anchor: middle; fill: #f0f6fc" x="642.08597" y="266.075633" transform="rotate(-0 642.08597 266.075633)">43.8</text>
   </g>
   <g id="text_21">
    <text style="font-weight: 700; font-size: 18px; font-family: 'DejaVu Sans'; text-anchor: middle; fill: #ffffff" x="377.480313" y="20.877187" transform="rotate(-0 377.480313 20.877187)">xz compression</text>
   </g>
   <g id="legend_1">
    <g id="patch_13">
     <path d="M 67.295313 60.455156 
L 93.295313 60.455156 
L 93.295313 51.355156 
L 67.295313 51.355156 
z
" style="fill: #4f8ef7"/>
    </g>
    <g id="text_22">
     <text style="font-size: 13px; font-family: 'DejaVu Sans'; text-anchor: start; fill: #f0f6fc" x="103.695312" y="60.455156" transform="rotate(-0 103.695312 60.455156)">single-thread</text>
    </g>
    <g id="patch_14">
     <path d="M 215.477031 60.455156 
L 241.477031 60.455156 
L 241.477031 51.355156 
L 215.477031 51.355156 
z
" style="fill: #06b6d4"/>
    </g>
    <g id="text_23">
     <text style="font-size: 13px; font-family: 'DejaVu Sans'; text-anchor: start; fill: #f0f6fc" x="251.877031" y="60.455156" transform="rotate(-0 251.877031 60.455156)">multi-thread</text>
    </g>
   </g>
  </g>
 </g>
 <defs>
  <clipPath id="p1341209eb3">
   <rect x="55.595313" y="38.877187" width="643.77" height="352.92"/>
  </clipPath>
 </defs>
</svg>
