<?xml version="1.0" encoding="utf-8" standalone="no"?>
<!DOCTYPE svg PUBLIC "-//W3C//DTD SVG 1.1//EN"
  "http://www.w3.org/Graphics/SVG/1.1/DTD/svg11.dtd">
<svg xmlns:xlink="http://www.w3.org/1999/xlink" width="706.544062pt" height="418.57875pt" viewBox="0 0 706.544062 418.57875" xmlns="http://www.w3.org/2000/svg" version="1.1">
 <metadata>
  <rdf:RDF xmlns:dc="http://purl.org/dc/elements/1.1/" xmlns:cc="http://creativecommons.org/ns#" xmlns:rdf="http://www.w3.org/1999/02/22-rdf-syntax-ns#">
   <cc:Work>
    <dc:type rdf:resource="http://purl.org/dc/dcmitype/StillImage"/>
    <dc:date>2026-06-30T21:07:54.936006</dc:date>
    <dc:format>image/svg+xml</dc:format>
    <dc:creator>
     <cc:Agent>
      <dc:title>Matplotlib v3.10.9, https://matplotlib.org/</dc:title>
     </cc:Agent>
    </dc:creator>
   </cc:Work>
  </rdf:RDF>
 </metadata>
 <defs>
  <style type="text/css">*{stroke-linejoin: round; stroke-linecap: butt}</style>
 </defs>
 <g id="figure_1">
  <g id="patch_1">
   <path d="M 0 418.57875 
L 706.544062 418.57875 
L 706.544062 0 
L 0 0 
z
" style="fill: #0d1117"/>
  </g>
  <g id="axes_1">
   <g id="patch_2">
    <path d="M 47.324063 391.797187 
L 699.344063 391.797187 
L 699.344063 38.877187 
L 47.324063 38.877187 
z
" style="fill: #161b22"/>
   </g>
   <g id="matplotlib.axis_1">
    <g id="xtick_1">
     <g id="line2d_1">
      <path d="M 136.866461 391.797187 
L 136.866461 38.877187 
" clip-path="url(#pf513c5a767)" style="fill: none; stroke-dasharray: 2.96,1.28; stroke-dashoffset: 0; stroke: #30363d; stroke-opacity: 0.35; stroke-width: 0.8"/>
     </g>
     <g id="line2d_2">
      <defs>
       <path id="mbacf8ce02d" d="M 0 0 
L 0 3.5 
" style="stroke: #c9d1d9; stroke-width: 0.8"/>
      </defs>
      <g>
       <use xlink:href="#mbacf8ce02d" x="136.866461" y="391.797187" style="fill: #c9d1d9; stroke: #c9d1d9; stroke-width: 0.8"/>
      </g>
     </g>
     <g id="text_1">
      <text style="font-size: 13px; font-family: 'DejaVu Sans'; text-anchor: middle; fill: #c9d1d9" x="136.866461" y="408.675156" transform="rotate(-0 136.866461 408.675156)">linux + v1</text>
     </g>
    </g>
    <g id="xtick_2">
     <g id="line2d_3">
      <path d="M 294.511529 391.797187 
L 294.511529 38.877187 
" clip-path="url(#pf513c5a767)" style="fill: none; stroke-dasharray: 2.96,1.28; stroke-dashoffset: 0; stroke: #30363d; stroke-opacity: 0.35; stroke-width: 0.8"/>
     </g>
     <g id="line2d_4">
      <g>
       <use xlink:href="#mbacf8ce02d" x="294.511529" y="391.797187" style="fill: #c9d1d9; stroke: #c9d1d9; stroke-width: 0.8"/>
      </g>
     </g>
     <g id="text_2">
      <text style="font-size: 13px; font-family: 'DejaVu Sans'; text-anchor: middle; fill: #c9d1d9" x="294.511529" y="408.675156" transform="rotate(-0 294.511529 408.675156)">linux + v3</text>
     </g>
    </g>
    <g id="xtick_3">
     <g id="line2d_5">
      <path d="M 452.156596 391.797187 
L 452.156596 38.877187 
" clip-path="url(#pf513c5a767)" style="fill: none; stroke-dasharray: 2.96,1.28; stroke-dashoffset: 0; stroke: #30363d; stroke-opacity: 0.35; stroke-width: 0.8"/>
     </g>
     <g id="line2d_6">
      <g>
       <use xlink:href="#mbacf8ce02d" x="452.156596" y="391.797187" style="fill: #c9d1d9; stroke: #c9d1d9; stroke-width: 0.8"/>
      </g>
     </g>
     <g id="text_3">
      <text style="font-size: 13px; font-family: 'DejaVu Sans'; text-anchor: middle; fill: #c9d1d9" x="452.156596" y="408.675156" transform="rotate(-0 452.156596 408.675156)">cachyos-bore + v1</text>
     </g>
    </g>
    <g id="xtick_4">
     <g id="line2d_7">
      <path d="M 609.801664 391.797187 
L 609.801664 38.877187 
" clip-path="url(#pf513c5a767)" style="fill: none; stroke-dasharray: 2.96,1.28; stroke-dashoffset: 0; stroke: #30363d; stroke-opacity: 0.35; stroke-width: 0.8"/>
     </g>
     <g id="line2d_8">
      <g>
       <use xlink:href="#mbacf8ce02d" x="609.801664" y="391.797187" style="fill: #c9d1d9; stroke: #c9d1d9; stroke-width: 0.8"/>
      </g>
     </g>
     <g id="text_4">
      <text style="font-size: 13px; font-family: 'DejaVu Sans'; text-anchor: middle; fill: #c9d1d9" x="609.801664" y="408.675156" transform="rotate(-0 609.801664 408.675156)">cachyos-bore + v3</text>
     </g>
    </g>
   </g>
   <g id="matplotlib.axis_2">
    <g id="ytick_1">
     <g id="line2d_9">
      <defs>
       <path id="m907e73602f" d="M 0 0 
L -3.5 0 
" style="stroke: #c9d1d9; stroke-width: 0.8"/>
      </defs>
      <g>
       <use xlink:href="#m907e73602f" x="47.324063" y="391.797187" style="fill: #c9d1d9; stroke: #c9d1d9; stroke-width: 0.8"/>
      </g>
     </g>
     <g id="text_5">
      <text style="font-size: 13px; font-family: 'DejaVu Sans'; text-anchor: end; fill: #c9d1d9" x="40.324063" y="396.736172" transform="rotate(-0 40.324063 396.736172)">0</text>
     </g>
    </g>
    <g id="ytick_2">
     <g id="line2d_10">
      <g>
       <use xlink:href="#m907e73602f" x="47.324063" y="318.937036" style="fill: #c9d1d9; stroke: #c9d1d9; stroke-width: 0.8"/>
      </g>
     </g>
     <g id="text_6">
      <text style="font-size: 13px; font-family: 'DejaVu Sans'; text-anchor: end; fill: #c9d1d9" x="40.324063" y="323.876021" transform="rotate(-0 40.324063 323.876021)">20</text>
     </g>
    </g>
    <g id="ytick_3">
     <g id="line2d_11">
      <g>
       <use xlink:href="#m907e73602f" x="47.324063" y="246.076885" style="fill: #c9d1d9; stroke: #c9d1d9; stroke-width: 0.8"/>
      </g>
     </g>
     <g id="text_7">
      <text style="font-size: 13px; font-family: 'DejaVu Sans'; text-anchor: end; fill: #c9d1d9" x="40.324063" y="251.01587" transform="rotate(-0 40.324063 251.01587)">40</text>
     </g>
    </g>
    <g id="ytick_4">
     <g id="line2d_12">
      <g>
       <use xlink:href="#m907e73602f" x="47.324063" y="173.216734" style="fill: #c9d1d9; stroke: #c9d1d9; stroke-width: 0.8"/>
      </g>
     </g>
     <g id="text_8">
      <text style="font-size: 13px; font-family: 'DejaVu Sans'; text-anchor: end; fill: #c9d1d9" x="40.324063" y="178.155719" transform="rotate(-0 40.324063 178.155719)">60</text>
     </g>
    </g>
    <g id="ytick_5">
     <g id="line2d_13">
      <g>
       <use xlink:href="#m907e73602f" x="47.324063" y="100.356583" style="fill: #c9d1d9; stroke: #c9d1d9; stroke-width: 0.8"/>
      </g>
     </g>
     <g id="text_9">
      <text style="font-size: 13px; font-family: 'DejaVu Sans'; text-anchor: end; fill: #c9d1d9" x="40.324063" y="105.295567" transform="rotate(-0 40.324063 105.295567)">80</text>
     </g>
    </g>
    <g id="text_10">
     <text style="font-size: 13px; font-family: 'DejaVu Sans'; text-anchor: middle; fill: #f0f6fc" x="17.077969" y="215.337187" transform="rotate(-90 17.077969 215.337187)">Seconds</text>
    </g>
   </g>
   <g id="patch_3">
    <path d="M 83.267138 391.797187 
L 127.407757 391.797187 
Q 133.71356 391.797187 133.71356 391.724327 
L 133.71356 220.721553 
Q 133.71356 220.648693 127.407757 220.648693 
L 83.267138 220.648693 
Q 76.961335 220.648693 76.961335 220.721553 
L 76.961335 391.724327 
Q 76.961335 391.797187 83.267138 391.797187 
z
" clip-path="url(#pf513c5a767)" style="fill: #4f8ef7"/>
   </g>
   <g id="patch_4">
    <path d="M 240.912206 391.797187 
L 285.052825 391.797187 
Q 291.358627 391.797187 291.358627 391.724327 
L 291.358627 87.606057 
Q 291.358627 87.533196 285.052825 87.533196 
L 240.912206 87.533196 
Q 234.606403 87.533196 234.606403 87.606057 
L 234.606403 391.724327 
Q 234.606403 391.797187 240.912206 391.797187 
z
" clip-path="url(#pf513c5a767)" style="fill: #4f8ef7"/>
   </g>
   <g id="patch_5">
    <path d="M 398.557273 391.797187 
L 442.697892 391.797187 
Q 449.003695 391.797187 449.003695 391.724327 
L 449.003695 84.983091 
Q 449.003695 84.910231 442.697892 84.910231 
L 398.557273 84.910231 
Q 392.251471 84.910231 392.251471 84.983091 
L 392.251471 391.724327 
Q 392.251471 391.797187 398.557273 391.797187 
z
" clip-path="url(#pf513c5a767)" style="fill: #4f8ef7"/>
   </g>
   <g id="patch_6">
    <path d="M 556.202341 391.797187 
L 600.34296 391.797187 
Q 606.648763 391.797187 606.648763 391.724327 
L 606.648763 89.682571 
Q 606.648763 89.609711 600.34296 89.609711 
L 556.202341 89.609711 
Q 549.896538 89.609711 549.896538 89.682571 
L 549.896538 391.724327 
Q 549.896538 391.797187 556.202341 391.797187 
z
" clip-path="url(#pf513c5a767)" style="fill: #4f8ef7"/>
   </g>
   <g id="patch_7">
    <path d="M 146.325165 391.797187 
L 190.465784 391.797187 
Q 196.771587 391.797187 196.771587 391.724327 
L 196.771587 85.857413 
Q 196.771587 85.784553 190.465784 85.784553 
L 146.325165 85.784553 
Q 140.019362 85.784553 140.019362 85.857413 
L 140.019362 391.724327 
Q 140.019362 391.797187 146.325165 391.797187 
z
" clip-path="url(#pf513c5a767)" style="fill: #06b6d4"/>
   </g>
   <g id="patch_8">
    <path d="M 303.970233 391.797187 
L 348.110852 391.797187 
Q 354.416654 391.797187 354.416654 391.724327 
L 354.416654 212.925516 
Q 354.416654 212.852656 348.110852 212.852656 
L 303.970233 212.852656 
Q 297.66443 212.852656 297.66443 212.925516 
L 297.66443 391.724327 
Q 297.66443 391.797187 303.970233 391.797187 
z
" clip-path="url(#pf513c5a767)" style="fill: #06b6d4"/>
   </g>
   <g id="patch_9">
    <path d="M 461.6153 391.797187 
L 505.755919 391.797187 
Q 512.061722 391.797187 512.061722 391.724327 
L 512.061722 218.936479 
Q 512.061722 218.863619 505.755919 218.863619 
L 461.6153 218.863619 
Q 455.309498 218.863619 455.309498 218.936479 
L 455.309498 391.724327 
Q 455.309498 391.797187 461.6153 391.797187 
z
" clip-path="url(#pf513c5a767)" style="fill: #06b6d4"/>
   </g>
   <g id="patch_10">
    <path d="M 619.260368 391.797187 
L 663.400987 391.797187 
Q 669.70679 391.797187 669.70679 391.724327 
L 669.70679 219.30078 
Q 669.70679 219.22792 663.400987 219.22792 
L 619.260368 219.22792 
Q 612.954565 219.22792 612.954565 219.30078 
L 612.954565 391.724327 
Q 612.954565 391.797187 619.260368 391.797187 
z
" clip-path="url(#pf513c5a767)" style="fill: #06b6d4"/>
   </g>
   <g id="patch_11">
    <path d="M 47.324063 391.797187 
L 47.324063 38.877187 
" style="fill: none; stroke: #30363d; stroke-width: 0.8; stroke-linejoin: miter; stroke-linecap: square"/>
   </g>
   <g id="patch_12">
    <path d="M 47.324063 391.797187 
L 699.344063 391.797187 
" style="fill: none; stroke: #30363d; stroke-width: 0.8; stroke-linejoin: miter; stroke-linecap: square"/>
   </g>
   <g id="text_11">
    <text style="font-size: 10px; font-family: 'DejaVu Sans'; text-anchor: middle; fill: #f0f6fc" x="105.337447" y="213.965701" transform="rotate(-0 105.337447 213.965701)">47.0</text>
   </g>
   <g id="text_12">
    <text style="font-size: 10px; font-family: 'DejaVu Sans'; text-anchor: middle; fill: #f0f6fc" x="262.982515" y="80.850205" transform="rotate(-0 262.982515 80.850205)">83.5</text>
   </g>
   <g id="text_13">
    <text style="font-size: 10px; font-family: 'DejaVu Sans'; text-anchor: middle; fill: #f0f6fc" x="420.627583" y="78.227239" transform="rotate(-0 420.627583 78.227239)">84.2</text>
   </g>
   <g id="text_14">
    <text style="font-size: 10px; font-family: 'DejaVu Sans'; text-anchor: middle; fill: #f0f6fc" x="578.272651" y="82.926719" transform="rotate(-0 578.272651 82.926719)">83.0</text>
   </g>
   <g id="text_15">
    <text style="font-size: 10px; font-family: 'DejaVu Sans'; text-anchor: middle; fill: #f0f6fc" x="168.395474" y="79.101561" transform="rotate(-0 168.395474 79.101561)">84.0</text>
   </g>
   <g id="text_16">
    <text style="font-size: 10px; font-family: 'DejaVu Sans'; text-anchor: middle; fill: #f0f6fc" x="326.040542" y="206.169664" transform="rotate(-0 326.040542 206.169664)">49.1</text>
   </g>
   <g id="text_17">
    <text style="font-size: 10px; font-family: 'DejaVu Sans'; text-anchor: middle; fill: #f0f6fc" x="483.68561" y="212.180627" transform="rotate(-0 483.68561 212.180627)">47.5</text>
   </g>
   <g id="text_18">
    <text style="font-size: 10px; font-family: 'DejaVu Sans'; text-anchor: middle; fill: #f0f6fc" x="641.330678" y="212.544928" transform="rotate(-0 641.330678 212.544928)">47.4</text>
   </g>
   <g id="text_19">
    <text style="font-weight: 700; font-size: 18px; font-family: 'DejaVu Sans'; text-anchor: middle; fill: #ffffff" x="373.334063" y="20.877187" transform="rotate(-0 373.334063 20.877187)">zstd commpression</text>
   </g>
   <g id="legend_1">
    <g id="patch_13">
     <path d="M 59.024063 60.455156 
L 85.024063 60.455156 
L 85.024063 51.355156 
L 59.024063 51.355156 
z
" style="fill: #4f8ef7"/>
    </g>
    <g id="text_20">
     <text style="font-size: 13px; font-family: 'DejaVu Sans'; text-anchor: start; fill: #f0f6fc" x="95.424063" y="60.455156" transform="rotate(-0 95.424063 60.455156)">single-thread</text>
    </g>
    <g id="patch_14">
     <path d="M 207.205781 60.455156 
L 233.205781 60.455156 
L 233.205781 51.355156 
L 207.205781 51.355156 
z
" style="fill: #06b6d4"/>
    </g>
    <g id="text_21">
     <text style="font-size: 13px; font-family: 'DejaVu Sans'; text-anchor: start; fill: #f0f6fc" x="243.605781" y="60.455156" transform="rotate(-0 243.605781 60.455156)">multi-thread</text>
    </g>
   </g>
  </g>
 </g>
 <defs>
  <clipPath id="pf513c5a767">
   <rect x="47.324063" y="38.877187" width="652.02" height="352.92"/>
  </clipPath>
 </defs>
</svg>
