<?xml version="1.0" encoding="utf-8" standalone="no"?>
<!DOCTYPE svg PUBLIC "-//W3C//DTD SVG 1.1//EN"
  "http://www.w3.org/Graphics/SVG/1.1/DTD/svg11.dtd">
<svg xmlns:xlink="http://www.w3.org/1999/xlink" width="706.544062pt" height="418.57875pt" viewBox="0 0 706.544062 418.57875" xmlns="http://www.w3.org/2000/svg" version="1.1">
 <metadata>
  <rdf:RDF xmlns:dc="http://purl.org/dc/elements/1.1/" xmlns:cc="http://creativecommons.org/ns#" xmlns:rdf="http://www.w3.org/1999/02/22-rdf-syntax-ns#">
   <cc:Work>
    <dc:type rdf:resource="http://purl.org/dc/dcmitype/StillImage"/>
    <dc:date>2026-06-30T21:07:54.729668</dc:date>
    <dc:format>image/svg+xml</dc:format>
    <dc:creator>
     <cc:Agent>
      <dc:title>Matplotlib v3.10.9, https://matplotlib.org/</dc:title>
     </cc:Agent>
    </dc:creator>
   </cc:Work>
  </rdf:RDF>
 </metadata>
 <defs>
  <style type="text/css">*{stroke-linejoin: round; stroke-linecap: butt}</style>
 </defs>
 <g id="figure_1">
  <g id="patch_1">
   <path d="M 0 418.57875 
L 706.544062 418.57875 
L 706.544062 0 
L 0 0 
z
" style="fill: #0d1117"/>
  </g>
  <g id="axes_1">
   <g id="patch_2">
    <path d="M 47.324063 391.797187 
L 699.344063 391.797187 
L 699.344063 38.877187 
L 47.324063 38.877187 
z
" style="fill: #161b22"/>
   </g>
   <g id="matplotlib.axis_1">
    <g id="xtick_1">
     <g id="line2d_1">
      <path d="M 137.702036 391.797187 
L 137.702036 38.877187 
" clip-path="url(#p7dc507aa93)" style="fill: none; stroke-dasharray: 2.96,1.28; stroke-dashoffset: 0; stroke: #30363d; stroke-opacity: 0.35; stroke-width: 0.8"/>
     </g>
     <g id="line2d_2">
      <defs>
       <path id="m31ad32f002" d="M 0 0 
L 0 3.5 
" style="stroke: #c9d1d9; stroke-width: 0.8"/>
      </defs>
      <g>
       <use xlink:href="#m31ad32f002" x="137.702036" y="391.797187" style="fill: #c9d1d9; stroke: #c9d1d9; stroke-width: 0.8"/>
      </g>
     </g>
     <g id="text_1">
      <text style="font-size: 13px; font-family: 'DejaVu Sans'; text-anchor: middle; fill: #c9d1d9" x="137.702036" y="408.675156" transform="rotate(-0 137.702036 408.675156)">linux + v1</text>
     </g>
    </g>
    <g id="xtick_2">
     <g id="line2d_3">
      <path d="M 294.790054 391.797187 
L 294.790054 38.877187 
" clip-path="url(#p7dc507aa93)" style="fill: none; stroke-dasharray: 2.96,1.28; stroke-dashoffset: 0; stroke: #30363d; stroke-opacity: 0.35; stroke-width: 0.8"/>
     </g>
     <g id="line2d_4">
      <g>
       <use xlink:href="#m31ad32f002" x="294.790054" y="391.797187" style="fill: #c9d1d9; stroke: #c9d1d9; stroke-width: 0.8"/>
      </g>
     </g>
     <g id="text_2">
      <text style="font-size: 13px; font-family: 'DejaVu Sans'; text-anchor: middle; fill: #c9d1d9" x="294.790054" y="408.675156" transform="rotate(-0 294.790054 408.675156)">linux + v3</text>
     </g>
    </g>
    <g id="xtick_3">
     <g id="line2d_5">
      <path d="M 451.878071 391.797187 
L 451.878071 38.877187 
" clip-path="url(#p7dc507aa93)" style="fill: none; stroke-dasharray: 2.96,1.28; stroke-dashoffset: 0; stroke: #30363d; stroke-opacity: 0.35; stroke-width: 0.8"/>
     </g>
     <g id="line2d_6">
      <g>
       <use xlink:href="#m31ad32f002" x="451.878071" y="391.797187" style="fill: #c9d1d9; stroke: #c9d1d9; stroke-width: 0.8"/>
      </g>
     </g>
     <g id="text_3">
      <text style="font-size: 13px; font-family: 'DejaVu Sans'; text-anchor: middle; fill: #c9d1d9" x="451.878071" y="408.675156" transform="rotate(-0 451.878071 408.675156)">cachy-bore + v1</text>
     </g>
    </g>
    <g id="xtick_4">
     <g id="line2d_7">
      <path d="M 608.966089 391.797187 
L 608.966089 38.877187 
" clip-path="url(#p7dc507aa93)" style="fill: none; stroke-dasharray: 2.96,1.28; stroke-dashoffset: 0; stroke: #30363d; stroke-opacity: 0.35; stroke-width: 0.8"/>
     </g>
     <g id="line2d_8">
      <g>
       <use xlink:href="#m31ad32f002" x="608.966089" y="391.797187" style="fill: #c9d1d9; stroke: #c9d1d9; stroke-width: 0.8"/>
      </g>
     </g>
     <g id="text_4">
      <text style="font-size: 13px; font-family: 'DejaVu Sans'; text-anchor: middle; fill: #c9d1d9" x="608.966089" y="408.675156" transform="rotate(-0 608.966089 408.675156)">cachy-bore + v3</text>
     </g>
    </g>
   </g>
   <g id="matplotlib.axis_2">
    <g id="ytick_1">
     <g id="line2d_9">
      <defs>
       <path id="m010b885c73" d="M 0 0 
L -3.5 0 
" style="stroke: #c9d1d9; stroke-width: 0.8"/>
      </defs>
      <g>
       <use xlink:href="#m010b885c73" x="47.324063" y="391.797187" style="fill: #c9d1d9; stroke: #c9d1d9; stroke-width: 0.8"/>
      </g>
     </g>
     <g id="text_5">
      <text style="font-size: 13px; font-family: 'DejaVu Sans'; text-anchor: end; fill: #c9d1d9" x="40.324063" y="396.736172" transform="rotate(-0 40.324063 396.736172)">0</text>
     </g>
    </g>
    <g id="ytick_2">
     <g id="line2d_10">
      <g>
       <use xlink:href="#m010b885c73" x="47.324063" y="335.999559" style="fill: #c9d1d9; stroke: #c9d1d9; stroke-width: 0.8"/>
      </g>
     </g>
     <g id="text_6">
      <text style="font-size: 13px; font-family: 'DejaVu Sans'; text-anchor: end; fill: #c9d1d9" x="40.324063" y="340.938543" transform="rotate(-0 40.324063 340.938543)">2</text>
     </g>
    </g>
    <g id="ytick_3">
     <g id="line2d_11">
      <g>
       <use xlink:href="#m010b885c73" x="47.324063" y="280.201931" style="fill: #c9d1d9; stroke: #c9d1d9; stroke-width: 0.8"/>
      </g>
     </g>
     <g id="text_7">
      <text style="font-size: 13px; font-family: 'DejaVu Sans'; text-anchor: end; fill: #c9d1d9" x="40.324063" y="285.140915" transform="rotate(-0 40.324063 285.140915)">4</text>
     </g>
    </g>
    <g id="ytick_4">
     <g id="line2d_12">
      <g>
       <use xlink:href="#m010b885c73" x="47.324063" y="224.404302" style="fill: #c9d1d9; stroke: #c9d1d9; stroke-width: 0.8"/>
      </g>
     </g>
     <g id="text_8">
      <text style="font-size: 13px; font-family: 'DejaVu Sans'; text-anchor: end; fill: #c9d1d9" x="40.324063" y="229.343286" transform="rotate(-0 40.324063 229.343286)">6</text>
     </g>
    </g>
    <g id="ytick_5">
     <g id="line2d_13">
      <g>
       <use xlink:href="#m010b885c73" x="47.324063" y="168.606674" style="fill: #c9d1d9; stroke: #c9d1d9; stroke-width: 0.8"/>
      </g>
     </g>
     <g id="text_9">
      <text style="font-size: 13px; font-family: 'DejaVu Sans'; text-anchor: end; fill: #c9d1d9" x="40.324063" y="173.545658" transform="rotate(-0 40.324063 173.545658)">8</text>
     </g>
    </g>
    <g id="ytick_6">
     <g id="line2d_14">
      <g>
       <use xlink:href="#m010b885c73" x="47.324063" y="112.809045" style="fill: #c9d1d9; stroke: #c9d1d9; stroke-width: 0.8"/>
      </g>
     </g>
     <g id="text_10">
      <text style="font-size: 13px; font-family: 'DejaVu Sans'; text-anchor: end; fill: #c9d1d9" x="40.324063" y="117.74803" transform="rotate(-0 40.324063 117.74803)">10</text>
     </g>
    </g>
    <g id="ytick_7">
     <g id="line2d_15">
      <g>
       <use xlink:href="#m010b885c73" x="47.324063" y="57.011417" style="fill: #c9d1d9; stroke: #c9d1d9; stroke-width: 0.8"/>
      </g>
     </g>
     <g id="text_11">
      <text style="font-size: 13px; font-family: 'DejaVu Sans'; text-anchor: end; fill: #c9d1d9" x="40.324063" y="61.950401" transform="rotate(-0 40.324063 61.950401)">12</text>
     </g>
    </g>
    <g id="text_12">
     <text style="font-size: 13px; font-family: 'DejaVu Sans'; text-anchor: middle; fill: #f0f6fc" x="17.077969" y="215.337187" transform="rotate(-90 17.077969 215.337187)">FPS</text>
    </g>
   </g>
   <g id="patch_3">
    <path d="M 83.244856 391.797187 
L 108.378939 391.797187 
Q 114.66246 391.797187 114.66246 391.239211 
L 114.66246 191.483701 
Q 114.66246 190.925725 108.378939 190.925725 
L 83.244856 190.925725 
Q 76.961335 190.925725 76.961335 191.483701 
L 76.961335 391.239211 
Q 76.961335 391.797187 83.244856 391.797187 
z
" clip-path="url(#p7dc507aa93)" style="fill: #4f8ef7"/>
   </g>
   <g id="patch_4">
    <path d="M 240.332874 391.797187 
L 265.466957 391.797187 
Q 271.750478 391.797187 271.750478 391.239211 
L 271.750478 166.374769 
Q 271.750478 165.816792 265.466957 165.816792 
L 240.332874 165.816792 
Q 234.049353 165.816792 234.049353 166.374769 
L 234.049353 391.239211 
Q 234.049353 391.797187 240.332874 391.797187 
z
" clip-path="url(#p7dc507aa93)" style="fill: #4f8ef7"/>
   </g>
   <g id="patch_5">
    <path d="M 397.420892 391.797187 
L 422.554975 391.797187 
Q 428.838496 391.797187 428.838496 391.239211 
L 428.838496 174.744413 
Q 428.838496 174.186437 422.554975 174.186437 
L 397.420892 174.186437 
Q 391.137371 174.186437 391.137371 174.744413 
L 391.137371 391.239211 
Q 391.137371 391.797187 397.420892 391.797187 
z
" clip-path="url(#p7dc507aa93)" style="fill: #4f8ef7"/>
   </g>
   <g id="patch_6">
    <path d="M 554.50891 391.797187 
L 579.642993 391.797187 
Q 585.926514 391.797187 585.926514 391.239211 
L 585.926514 188.69382 
Q 585.926514 188.135844 579.642993 188.135844 
L 554.50891 188.135844 
Q 548.225389 188.135844 548.225389 188.69382 
L 548.225389 391.239211 
Q 548.225389 391.797187 554.50891 391.797187 
z
" clip-path="url(#p7dc507aa93)" style="fill: #4f8ef7"/>
   </g>
   <g id="patch_7">
    <path d="M 125.134994 391.797187 
L 150.269077 391.797187 
Q 156.552598 391.797187 156.552598 391.239211 
L 156.552598 264.020618 
Q 156.552598 263.462642 150.269077 263.462642 
L 125.134994 263.462642 
Q 118.851473 263.462642 118.851473 264.020618 
L 118.851473 391.239211 
Q 118.851473 391.797187 125.134994 391.797187 
z
" clip-path="url(#p7dc507aa93)" style="fill: #06b6d4"/>
   </g>
   <g id="patch_8">
    <path d="M 282.223012 391.797187 
L 307.357095 391.797187 
Q 313.640616 391.797187 313.640616 391.239211 
L 313.640616 260.393772 
Q 313.640616 259.835796 307.357095 259.835796 
L 282.223012 259.835796 
Q 275.939491 259.835796 275.939491 260.393772 
L 275.939491 391.239211 
Q 275.939491 391.797187 282.223012 391.797187 
z
" clip-path="url(#p7dc507aa93)" style="fill: #06b6d4"/>
   </g>
   <g id="patch_9">
    <path d="M 439.31103 391.797187 
L 464.445113 391.797187 
Q 470.728634 391.797187 470.728634 391.239211 
L 470.728634 263.462642 
Q 470.728634 262.904666 464.445113 262.904666 
L 439.31103 262.904666 
Q 433.027509 262.904666 433.027509 263.462642 
L 433.027509 391.239211 
Q 433.027509 391.797187 439.31103 391.797187 
z
" clip-path="url(#p7dc507aa93)" style="fill: #06b6d4"/>
   </g>
   <g id="patch_10">
    <path d="M 596.399048 391.797187 
L 621.533131 391.797187 
Q 627.816652 391.797187 627.816652 391.239211 
L 627.816652 260.951749 
Q 627.816652 260.393772 621.533131 260.393772 
L 596.399048 260.393772 
Q 590.115527 260.393772 590.115527 260.951749 
L 590.115527 391.239211 
Q 590.115527 391.797187 596.399048 391.797187 
z
" clip-path="url(#p7dc507aa93)" style="fill: #06b6d4"/>
   </g>
   <g id="patch_11">
    <path d="M 167.025132 391.797187 
L 192.159215 391.797187 
Q 198.442736 391.797187 198.442736 391.239211 
L 198.442736 138.475954 
Q 198.442736 137.917978 192.159215 137.917978 
L 167.025132 137.917978 
Q 160.741611 137.917978 160.741611 138.475954 
L 160.741611 391.239211 
Q 160.741611 391.797187 167.025132 391.797187 
z
" clip-path="url(#p7dc507aa93)" style="fill: #22c55e"/>
   </g>
   <g id="patch_12">
    <path d="M 324.11315 391.797187 
L 349.247233 391.797187 
Q 355.530754 391.797187 355.530754 391.239211 
L 355.530754 118.946784 
Q 355.530754 118.388808 349.247233 118.388808 
L 324.11315 118.388808 
Q 317.829629 118.388808 317.829629 118.946784 
L 317.829629 391.239211 
Q 317.829629 391.797187 324.11315 391.797187 
z
" clip-path="url(#p7dc507aa93)" style="fill: #22c55e"/>
   </g>
   <g id="patch_13">
    <path d="M 481.201168 391.797187 
L 506.335251 391.797187 
Q 512.618772 391.797187 512.618772 391.239211 
L 512.618772 118.946784 
Q 512.618772 118.388808 506.335251 118.388808 
L 481.201168 118.388808 
Q 474.917647 118.388808 474.917647 118.946784 
L 474.917647 391.239211 
Q 474.917647 391.797187 481.201168 391.797187 
z
" clip-path="url(#p7dc507aa93)" style="fill: #22c55e"/>
   </g>
   <g id="patch_14">
    <path d="M 638.289186 391.797187 
L 663.423269 391.797187 
Q 669.70679 391.797187 669.70679 391.239211 
L 669.70679 85.468207 
Q 669.70679 84.910231 663.423269 84.910231 
L 638.289186 84.910231 
Q 632.005665 84.910231 632.005665 85.468207 
L 632.005665 391.239211 
Q 632.005665 391.797187 638.289186 391.797187 
z
" clip-path="url(#p7dc507aa93)" style="fill: #22c55e"/>
   </g>
   <g id="patch_15">
    <path d="M 47.324063 391.797187 
L 47.324063 38.877187 
" style="fill: none; stroke: #30363d; stroke-width: 0.8; stroke-linejoin: miter; stroke-linecap: square"/>
   </g>
   <g id="patch_16">
    <path d="M 47.324062 391.797187 
L 699.344063 391.797187 
" style="fill: none; stroke: #30363d; stroke-width: 0.8; stroke-linejoin: miter; stroke-linecap: square"/>
   </g>
   <g id="text_13">
    <text style="font-size: 10px; font-family: 'DejaVu Sans'; text-anchor: middle; fill: #f0f6fc" x="95.811897" y="184.242733" transform="rotate(-0 95.811897 184.242733)">7.2</text>
   </g>
   <g id="text_14">
    <text style="font-size: 10px; font-family: 'DejaVu Sans'; text-anchor: middle; fill: #f0f6fc" x="252.899915" y="159.1338" transform="rotate(-0 252.899915 159.1338)">8.1</text>
   </g>
   <g id="text_15">
    <text style="font-size: 10px; font-family: 'DejaVu Sans'; text-anchor: middle; fill: #f0f6fc" x="409.987933" y="167.503445" transform="rotate(-0 409.987933 167.503445)">7.8</text>
   </g>
   <g id="text_16">
    <text style="font-size: 10px; font-family: 'DejaVu Sans'; text-anchor: middle; fill: #f0f6fc" x="567.075951" y="181.452852" transform="rotate(-0 567.075951 181.452852)">7.3</text>
   </g>
   <g id="text_17">
    <text style="font-size: 10px; font-family: 'DejaVu Sans'; text-anchor: middle; fill: #f0f6fc" x="137.702036" y="256.77965" transform="rotate(-0 137.702036 256.77965)">4.6</text>
   </g>
   <g id="text_18">
    <text style="font-size: 10px; font-family: 'DejaVu Sans'; text-anchor: middle; fill: #f0f6fc" x="294.790054" y="253.152804" transform="rotate(-0 294.790054 253.152804)">4.7</text>
   </g>
   <g id="text_19">
    <text style="font-size: 10px; font-family: 'DejaVu Sans'; text-anchor: middle; fill: #f0f6fc" x="451.878071" y="256.221674" transform="rotate(-0 451.878071 256.221674)">4.6</text>
   </g>
   <g id="text_20">
    <text style="font-size: 10px; font-family: 'DejaVu Sans'; text-anchor: middle; fill: #f0f6fc" x="608.966089" y="253.710781" transform="rotate(-0 608.966089 253.710781)">4.7</text>
   </g>
   <g id="text_21">
    <text style="font-size: 10px; font-family: 'DejaVu Sans'; text-anchor: middle; fill: #f0f6fc" x="179.592174" y="131.234986" transform="rotate(-0 179.592174 131.234986)">9.1</text>
   </g>
   <g id="text_22">
    <text style="font-size: 10px; font-family: 'DejaVu Sans'; text-anchor: middle; fill: #f0f6fc" x="336.680192" y="111.705816" transform="rotate(-0 336.680192 111.705816)">9.8</text>
   </g>
   <g id="text_23">
    <text style="font-size: 10px; font-family: 'DejaVu Sans'; text-anchor: middle; fill: #f0f6fc" x="493.76821" y="111.705816" transform="rotate(-0 493.76821 111.705816)">9.8</text>
   </g>
   <g id="text_24">
    <text style="font-size: 10px; font-family: 'DejaVu Sans'; text-anchor: middle; fill: #f0f6fc" x="650.856228" y="78.227239" transform="rotate(-0 650.856228 78.227239)">11.0</text>
   </g>
   <g id="text_25">
    <text style="font-weight: 700; font-size: 18px; font-family: 'DejaVu Sans'; text-anchor: middle; fill: #ffffff" x="373.334063" y="20.877187" transform="rotate(-0 373.334063 20.877187)">ffmpeg encoding</text>
   </g>
   <g id="legend_1">
    <g id="patch_17">
     <path d="M 59.024063 60.455156 
L 85.024063 60.455156 
L 85.024063 51.355156 
L 59.024063 51.355156 
z
" style="fill: #4f8ef7"/>
    </g>
    <g id="text_26">
     <text style="font-size: 13px; font-family: 'DejaVu Sans'; text-anchor: start; fill: #f0f6fc" x="95.424063" y="60.455156" transform="rotate(-0 95.424063 60.455156)">H.264</text>
    </g>
    <g id="patch_18">
     <path d="M 159.918281 60.455156 
L 185.918281 60.455156 
L 185.918281 51.355156 
L 159.918281 51.355156 
z
" style="fill: #06b6d4"/>
    </g>
    <g id="text_27">
     <text style="font-size: 13px; font-family: 'DejaVu Sans'; text-anchor: start; fill: #f0f6fc" x="196.318281" y="60.455156" transform="rotate(-0 196.318281 60.455156)">H.265</text>
    </g>
    <g id="patch_19">
     <path d="M 260.8125 60.455156 
L 286.8125 60.455156 
L 286.8125 51.355156 
L 260.8125 51.355156 
z
" style="fill: #22c55e"/>
    </g>
    <g id="text_28">
     <text style="font-size: 13px; font-family: 'DejaVu Sans'; text-anchor: start; fill: #f0f6fc" x="297.2125" y="60.455156" transform="rotate(-0 297.2125 60.455156)">AV1</text>
    </g>
   </g>
  </g>
 </g>
 <defs>
  <clipPath id="p7dc507aa93">
   <rect x="47.324063" y="38.877187" width="652.02" height="352.92"/>
  </clipPath>
 </defs>
</svg>
