<?xml version="1.0" encoding="utf-8" standalone="no"?>
<!DOCTYPE svg PUBLIC "-//W3C//DTD SVG 1.1//EN"
  "http://www.w3.org/Graphics/SVG/1.1/DTD/svg11.dtd">
<svg xmlns:xlink="http://www.w3.org/1999/xlink" width="706.586562pt" height="418.57875pt" viewBox="0 0 706.586562 418.57875" xmlns="http://www.w3.org/2000/svg" version="1.1">
 <metadata>
  <rdf:RDF xmlns:dc="http://purl.org/dc/elements/1.1/" xmlns:cc="http://creativecommons.org/ns#" xmlns:rdf="http://www.w3.org/1999/02/22-rdf-syntax-ns#">
   <cc:Work>
    <dc:type rdf:resource="http://purl.org/dc/dcmitype/StillImage"/>
    <dc:date>2026-06-30T21:07:53.342978</dc:date>
    <dc:format>image/svg+xml</dc:format>
    <dc:creator>
     <cc:Agent>
      <dc:title>Matplotlib v3.10.9, https://matplotlib.org/</dc:title>
     </cc:Agent>
    </dc:creator>
   </cc:Work>
  </rdf:RDF>
 </metadata>
 <defs>
  <style type="text/css">*{stroke-linejoin: round; stroke-linecap: butt}</style>
 </defs>
 <g id="figure_1">
  <g id="patch_1">
   <path d="M 0 418.57875 
L 706.586562 418.57875 
L 706.586562 0 
L 0 0 
z
" style="fill: #0d1117"/>
  </g>
  <g id="axes_1">
   <g id="patch_2">
    <path d="M 63.866563 391.797187 
L 699.386563 391.797187 
L 699.386563 38.877187 
L 63.866563 38.877187 
z
" style="fill: #161b22"/>
   </g>
   <g id="matplotlib.axis_1">
    <g id="xtick_1">
     <g id="line2d_1">
      <path d="M 217.494331 391.797187 
L 217.494331 38.877187 
" clip-path="url(#p04174d47f1)" style="fill: none; stroke-dasharray: 2.96,1.28; stroke-dashoffset: 0; stroke: #30363d; stroke-opacity: 0.35; stroke-width: 0.8"/>
     </g>
     <g id="line2d_2">
      <defs>
       <path id="m043b144e5a" d="M 0 0 
L 0 3.5 
" style="stroke: #c9d1d9; stroke-width: 0.8"/>
      </defs>
      <g>
       <use xlink:href="#m043b144e5a" x="217.494331" y="391.797187" style="fill: #c9d1d9; stroke: #c9d1d9; stroke-width: 0.8"/>
      </g>
     </g>
     <g id="text_1">
      <text style="font-size: 13px; font-family: 'DejaVu Sans'; text-anchor: middle; fill: #c9d1d9" x="217.494331" y="408.675156" transform="rotate(-0 217.494331 408.675156)">mainline-linux</text>
     </g>
    </g>
    <g id="xtick_2">
     <g id="line2d_3">
      <path d="M 545.758794 391.797187 
L 545.758794 38.877187 
" clip-path="url(#p04174d47f1)" style="fill: none; stroke-dasharray: 2.96,1.28; stroke-dashoffset: 0; stroke: #30363d; stroke-opacity: 0.35; stroke-width: 0.8"/>
     </g>
     <g id="line2d_4">
      <g>
       <use xlink:href="#m043b144e5a" x="545.758794" y="391.797187" style="fill: #c9d1d9; stroke: #c9d1d9; stroke-width: 0.8"/>
      </g>
     </g>
     <g id="text_2">
      <text style="font-size: 13px; font-family: 'DejaVu Sans'; text-anchor: middle; fill: #c9d1d9" x="545.758794" y="408.675156" transform="rotate(-0 545.758794 408.675156)">cachyos-bore</text>
     </g>
    </g>
   </g>
   <g id="matplotlib.axis_2">
    <g id="ytick_1">
     <g id="line2d_5">
      <defs>
       <path id="ma057cbf5c9" d="M 0 0 
L -3.5 0 
" style="stroke: #c9d1d9; stroke-width: 0.8"/>
      </defs>
      <g>
       <use xlink:href="#ma057cbf5c9" x="63.866563" y="391.797187" style="fill: #c9d1d9; stroke: #c9d1d9; stroke-width: 0.8"/>
      </g>
     </g>
     <g id="text_3">
      <text style="font-size: 13px; font-family: 'DejaVu Sans'; text-anchor: end; fill: #c9d1d9" x="56.866563" y="396.736172" transform="rotate(-0 56.866563 396.736172)">0</text>
     </g>
    </g>
    <g id="ytick_2">
     <g id="line2d_6">
      <g>
       <use xlink:href="#ma057cbf5c9" x="63.866563" y="321.470758" style="fill: #c9d1d9; stroke: #c9d1d9; stroke-width: 0.8"/>
      </g>
     </g>
     <g id="text_4">
      <text style="font-size: 13px; font-family: 'DejaVu Sans'; text-anchor: end; fill: #c9d1d9" x="56.866563" y="326.409742" transform="rotate(-0 56.866563 326.409742)">200</text>
     </g>
    </g>
    <g id="ytick_3">
     <g id="line2d_7">
      <g>
       <use xlink:href="#ma057cbf5c9" x="63.866563" y="251.144329" style="fill: #c9d1d9; stroke: #c9d1d9; stroke-width: 0.8"/>
      </g>
     </g>
     <g id="text_5">
      <text style="font-size: 13px; font-family: 'DejaVu Sans'; text-anchor: end; fill: #c9d1d9" x="56.866563" y="256.083313" transform="rotate(-0 56.866563 256.083313)">400</text>
     </g>
    </g>
    <g id="ytick_4">
     <g id="line2d_8">
      <g>
       <use xlink:href="#ma057cbf5c9" x="63.866563" y="180.817899" style="fill: #c9d1d9; stroke: #c9d1d9; stroke-width: 0.8"/>
      </g>
     </g>
     <g id="text_6">
      <text style="font-size: 13px; font-family: 'DejaVu Sans'; text-anchor: end; fill: #c9d1d9" x="56.866563" y="185.756884" transform="rotate(-0 56.866563 185.756884)">600</text>
     </g>
    </g>
    <g id="ytick_5">
     <g id="line2d_9">
      <g>
       <use xlink:href="#ma057cbf5c9" x="63.866563" y="110.49147" style="fill: #c9d1d9; stroke: #c9d1d9; stroke-width: 0.8"/>
      </g>
     </g>
     <g id="text_7">
      <text style="font-size: 13px; font-family: 'DejaVu Sans'; text-anchor: end; fill: #c9d1d9" x="56.866563" y="115.430454" transform="rotate(-0 56.866563 115.430454)">800</text>
     </g>
    </g>
    <g id="ytick_6">
     <g id="line2d_10">
      <g>
       <use xlink:href="#ma057cbf5c9" x="63.866563" y="40.16504" style="fill: #c9d1d9; stroke: #c9d1d9; stroke-width: 0.8"/>
      </g>
     </g>
     <g id="text_8">
      <text style="font-size: 13px; font-family: 'DejaVu Sans'; text-anchor: end; fill: #c9d1d9" x="56.866563" y="45.104025" transform="rotate(-0 56.866563 45.104025)">1000</text>
     </g>
    </g>
    <g id="text_9">
     <text style="font-size: 13px; font-family: 'DejaVu Sans'; text-anchor: middle; fill: #f0f6fc" x="17.077969" y="215.337187" transform="rotate(-90 17.077969 215.337187)">Seconds</text>
    </g>
   </g>
   <g id="patch_3">
    <path d="M 105.884414 391.797187 
L 197.798463 391.797187 
Q 210.929042 391.797187 210.929042 391.790155 
L 210.929042 89.618585 
Q 210.929042 89.611553 197.798463 89.611553 
L 105.884414 89.611553 
Q 92.753835 89.611553 92.753835 89.618585 
L 92.753835 391.790155 
Q 92.753835 391.797187 105.884414 391.797187 
z
" clip-path="url(#p04174d47f1)" style="fill: #4f8ef7"/>
   </g>
   <g id="patch_4">
    <path d="M 434.148877 391.797187 
L 526.062926 391.797187 
Q 539.193505 391.797187 539.193505 391.790155 
L 539.193505 84.917264 
Q 539.193505 84.910231 526.062926 84.910231 
L 434.148877 84.910231 
Q 421.018298 84.910231 421.018298 84.917264 
L 421.018298 391.790155 
Q 421.018298 391.797187 434.148877 391.797187 
z
" clip-path="url(#p04174d47f1)" style="fill: #4f8ef7"/>
   </g>
   <g id="patch_5">
    <path d="M 237.190199 391.797187 
L 329.104248 391.797187 
Q 342.234827 391.797187 342.234827 391.790155 
L 342.234827 112.822791 
Q 342.234827 112.815758 329.104248 112.815758 
L 237.190199 112.815758 
Q 224.05962 112.815758 224.05962 112.822791 
L 224.05962 391.790155 
Q 224.05962 391.797187 237.190199 391.797187 
z
" clip-path="url(#p04174d47f1)" style="fill: #06b6d4"/>
   </g>
   <g id="patch_6">
    <path d="M 565.454662 391.797187 
L 657.368711 391.797187 
Q 670.49929 391.797187 670.49929 391.790155 
L 670.49929 118.248475 
Q 670.49929 118.241442 657.368711 118.241442 
L 565.454662 118.241442 
Q 552.324083 118.241442 552.324083 118.248475 
L 552.324083 391.790155 
Q 552.324083 391.797187 565.454662 391.797187 
z
" clip-path="url(#p04174d47f1)" style="fill: #06b6d4"/>
   </g>
   <g id="patch_7">
    <path d="M 63.866563 391.797187 
L 63.866563 38.877187 
" style="fill: none; stroke: #30363d; stroke-width: 0.8; stroke-linejoin: miter; stroke-linecap: square"/>
   </g>
   <g id="patch_8">
    <path d="M 63.866563 391.797187 
L 699.386563 391.797187 
" style="fill: none; stroke: #30363d; stroke-width: 0.8; stroke-linejoin: miter; stroke-linecap: square"/>
   </g>
   <g id="text_10">
    <text style="font-size: 10px; font-family: 'DejaVu Sans'; text-anchor: middle; fill: #f0f6fc" x="151.841439" y="82.928561" transform="rotate(-0 151.841439 82.928561)">859.4</text>
   </g>
   <g id="text_11">
    <text style="font-size: 10px; font-family: 'DejaVu Sans'; text-anchor: middle; fill: #f0f6fc" x="480.105901" y="78.227239" transform="rotate(-0 480.105901 78.227239)">872.8</text>
   </g>
   <g id="text_12">
    <text style="font-size: 10px; font-family: 'DejaVu Sans'; text-anchor: middle; fill: #f0f6fc" x="283.147224" y="106.132766" transform="rotate(-0 283.147224 106.132766)">793.4</text>
   </g>
   <g id="text_13">
    <text style="font-size: 10px; font-family: 'DejaVu Sans'; text-anchor: middle; fill: #f0f6fc" x="611.411686" y="111.55845" transform="rotate(-0 611.411686 111.55845)">778.0</text>
   </g>
   <g id="text_14">
    <text style="font-weight: 700; font-size: 18px; font-family: 'DejaVu Sans'; text-anchor: middle; fill: #ffffff" x="381.626563" y="20.877187" transform="rotate(-0 381.626563 20.877187)">Lamma.cpp Build Time</text>
   </g>
   <g id="legend_1">
    <g id="patch_9">
     <path d="M 75.566563 60.455156 
L 101.566563 60.455156 
L 101.566563 51.355156 
L 75.566563 51.355156 
z
" style="fill: #4f8ef7"/>
    </g>
    <g id="text_15">
     <text style="font-size: 13px; font-family: 'DejaVu Sans'; text-anchor: start; fill: #f0f6fc" x="111.966563" y="60.455156" transform="rotate(-0 111.966563 60.455156)">v1-repo</text>
    </g>
    <g id="patch_10">
     <path d="M 187.880469 60.455156 
L 213.880469 60.455156 
L 213.880469 51.355156 
L 187.880469 51.355156 
z
" style="fill: #06b6d4"/>
    </g>
    <g id="text_16">
     <text style="font-size: 13px; font-family: 'DejaVu Sans'; text-anchor: start; fill: #f0f6fc" x="224.280469" y="60.455156" transform="rotate(-0 224.280469 60.455156)">v3-repo</text>
    </g>
   </g>
  </g>
 </g>
 <defs>
  <clipPath id="p04174d47f1">
   <rect x="63.866563" y="38.877187" width="635.52" height="352.92"/>
  </clipPath>
 </defs>
</svg>
