<?xml version="1.0" encoding="utf-8" standalone="no"?>
<!DOCTYPE svg PUBLIC "-//W3C//DTD SVG 1.1//EN"
  "http://www.w3.org/Graphics/SVG/1.1/DTD/svg11.dtd">
<svg xmlns:xlink="http://www.w3.org/1999/xlink" width="706.522813pt" height="418.57875pt" viewBox="0 0 706.522813 418.57875" xmlns="http://www.w3.org/2000/svg" version="1.1">
 <metadata>
  <rdf:RDF xmlns:dc="http://purl.org/dc/elements/1.1/" xmlns:cc="http://creativecommons.org/ns#" xmlns:rdf="http://www.w3.org/1999/02/22-rdf-syntax-ns#">
   <cc:Work>
    <dc:type rdf:resource="http://purl.org/dc/dcmitype/StillImage"/>
    <dc:date>2026-06-30T21:07:53.711856</dc:date>
    <dc:format>image/svg+xml</dc:format>
    <dc:creator>
     <cc:Agent>
      <dc:title>Matplotlib v3.10.9, https://matplotlib.org/</dc:title>
     </cc:Agent>
    </dc:creator>
   </cc:Work>
  </rdf:RDF>
 </metadata>
 <defs>
  <style type="text/css">*{stroke-linejoin: round; stroke-linecap: butt}</style>
 </defs>
 <g id="figure_1">
  <g id="patch_1">
   <path d="M 0 418.57875 
L 706.522813 418.57875 
L 706.522813 0 
L 0 0 
z
" style="fill: #0d1117"/>
  </g>
  <g id="axes_1">
   <g id="patch_2">
    <path d="M 39.052813 391.797187 
L 699.322813 391.797187 
L 699.322813 38.877187 
L 39.052813 38.877187 
z
" style="fill: #161b22"/>
   </g>
   <g id="matplotlib.axis_1">
    <g id="xtick_1">
     <g id="line2d_1">
      <path d="M 199.945673 391.797187 
L 199.945673 38.877187 
" clip-path="url(#p6cb2497c08)" style="fill: none; stroke-dasharray: 2.96,1.28; stroke-dashoffset: 0; stroke: #30363d; stroke-opacity: 0.35; stroke-width: 0.8"/>
     </g>
     <g id="line2d_2">
      <defs>
       <path id="me530d009c4" d="M 0 0 
L 0 3.5 
" style="stroke: #c9d1d9; stroke-width: 0.8"/>
      </defs>
      <g>
       <use xlink:href="#me530d009c4" x="199.945673" y="391.797187" style="fill: #c9d1d9; stroke: #c9d1d9; stroke-width: 0.8"/>
      </g>
     </g>
     <g id="text_1">
      <text style="font-size: 13px; font-family: 'DejaVu Sans'; text-anchor: middle; fill: #c9d1d9" x="199.945673" y="408.675156" transform="rotate(-0 199.945673 408.675156)">linux</text>
     </g>
    </g>
    <g id="xtick_2">
     <g id="line2d_3">
      <path d="M 538.429952 391.797187 
L 538.429952 38.877187 
" clip-path="url(#p6cb2497c08)" style="fill: none; stroke-dasharray: 2.96,1.28; stroke-dashoffset: 0; stroke: #30363d; stroke-opacity: 0.35; stroke-width: 0.8"/>
     </g>
     <g id="line2d_4">
      <g>
       <use xlink:href="#me530d009c4" x="538.429952" y="391.797187" style="fill: #c9d1d9; stroke: #c9d1d9; stroke-width: 0.8"/>
      </g>
     </g>
     <g id="text_2">
      <text style="font-size: 13px; font-family: 'DejaVu Sans'; text-anchor: middle; fill: #c9d1d9" x="538.429952" y="408.675156" transform="rotate(-0 538.429952 408.675156)">cachyos-bore</text>
     </g>
    </g>
   </g>
   <g id="matplotlib.axis_2">
    <g id="ytick_1">
     <g id="line2d_5">
      <defs>
       <path id="mcd488f48be" d="M 0 0 
L -3.5 0 
" style="stroke: #c9d1d9; stroke-width: 0.8"/>
      </defs>
      <g>
       <use xlink:href="#mcd488f48be" x="39.052813" y="391.797187" style="fill: #c9d1d9; stroke: #c9d1d9; stroke-width: 0.8"/>
      </g>
     </g>
     <g id="text_3">
      <text style="font-size: 13px; font-family: 'DejaVu Sans'; text-anchor: end; fill: #c9d1d9" x="32.052813" y="396.736172" transform="rotate(-0 32.052813 396.736172)">0</text>
     </g>
    </g>
    <g id="ytick_2">
     <g id="line2d_6">
      <g>
       <use xlink:href="#mcd488f48be" x="39.052813" y="338.885643" style="fill: #c9d1d9; stroke: #c9d1d9; stroke-width: 0.8"/>
      </g>
     </g>
     <g id="text_4">
      <text style="font-size: 13px; font-family: 'DejaVu Sans'; text-anchor: end; fill: #c9d1d9" x="32.052813" y="343.824628" transform="rotate(-0 32.052813 343.824628)">1</text>
     </g>
    </g>
    <g id="ytick_3">
     <g id="line2d_7">
      <g>
       <use xlink:href="#mcd488f48be" x="39.052813" y="285.974099" style="fill: #c9d1d9; stroke: #c9d1d9; stroke-width: 0.8"/>
      </g>
     </g>
     <g id="text_5">
      <text style="font-size: 13px; font-family: 'DejaVu Sans'; text-anchor: end; fill: #c9d1d9" x="32.052813" y="290.913083" transform="rotate(-0 32.052813 290.913083)">2</text>
     </g>
    </g>
    <g id="ytick_4">
     <g id="line2d_8">
      <g>
       <use xlink:href="#mcd488f48be" x="39.052813" y="233.062555" style="fill: #c9d1d9; stroke: #c9d1d9; stroke-width: 0.8"/>
      </g>
     </g>
     <g id="text_6">
      <text style="font-size: 13px; font-family: 'DejaVu Sans'; text-anchor: end; fill: #c9d1d9" x="32.052813" y="238.001539" transform="rotate(-0 32.052813 238.001539)">3</text>
     </g>
    </g>
    <g id="ytick_5">
     <g id="line2d_9">
      <g>
       <use xlink:href="#mcd488f48be" x="39.052813" y="180.151011" style="fill: #c9d1d9; stroke: #c9d1d9; stroke-width: 0.8"/>
      </g>
     </g>
     <g id="text_7">
      <text style="font-size: 13px; font-family: 'DejaVu Sans'; text-anchor: end; fill: #c9d1d9" x="32.052813" y="185.089995" transform="rotate(-0 32.052813 185.089995)">4</text>
     </g>
    </g>
    <g id="ytick_6">
     <g id="line2d_10">
      <g>
       <use xlink:href="#mcd488f48be" x="39.052813" y="127.239466" style="fill: #c9d1d9; stroke: #c9d1d9; stroke-width: 0.8"/>
      </g>
     </g>
     <g id="text_8">
      <text style="font-size: 13px; font-family: 'DejaVu Sans'; text-anchor: end; fill: #c9d1d9" x="32.052813" y="132.178451" transform="rotate(-0 32.052813 132.178451)">5</text>
     </g>
    </g>
    <g id="ytick_7">
     <g id="line2d_11">
      <g>
       <use xlink:href="#mcd488f48be" x="39.052813" y="74.327922" style="fill: #c9d1d9; stroke: #c9d1d9; stroke-width: 0.8"/>
      </g>
     </g>
     <g id="text_9">
      <text style="font-size: 13px; font-family: 'DejaVu Sans'; text-anchor: end; fill: #c9d1d9" x="32.052813" y="79.266907" transform="rotate(-0 32.052813 79.266907)">6</text>
     </g>
    </g>
    <g id="text_10">
     <text style="font-size: 13px; font-family: 'DejaVu Sans'; text-anchor: middle; fill: #f0f6fc" x="17.077969" y="215.337187" transform="rotate(-90 17.077969 215.337187)">Tokens/Sec</text>
    </g>
   </g>
   <g id="patch_3">
    <path d="M 82.604456 391.797187 
L 136.761941 391.797187 
Q 150.301312 391.797187 150.301312 390.738957 
L 150.301312 114.540696 
Q 150.301312 113.482465 136.761941 113.482465 
L 82.604456 113.482465 
Q 69.065085 113.482465 69.065085 114.540696 
L 69.065085 390.738957 
Q 69.065085 391.797187 82.604456 391.797187 
z
" clip-path="url(#p6cb2497c08)" style="fill: #4f8ef7"/>
   </g>
   <g id="patch_4">
    <path d="M 421.088735 391.797187 
L 475.24622 391.797187 
Q 488.785591 391.797187 488.785591 390.738957 
L 488.785591 111.366003 
Q 488.785591 110.307772 475.24622 110.307772 
L 421.088735 110.307772 
Q 407.549364 110.307772 407.549364 111.366003 
L 407.549364 390.738957 
Q 407.549364 391.797187 421.088735 391.797187 
z
" clip-path="url(#p6cb2497c08)" style="fill: #4f8ef7"/>
   </g>
   <g id="patch_5">
    <path d="M 172.866931 391.797187 
L 227.024415 391.797187 
Q 240.563787 391.797187 240.563787 390.738957 
L 240.563787 85.968462 
Q 240.563787 84.910231 227.024415 84.910231 
L 172.866931 84.910231 
Q 159.32756 84.910231 159.32756 85.968462 
L 159.32756 390.738957 
Q 159.32756 391.797187 172.866931 391.797187 
z
" clip-path="url(#p6cb2497c08)" style="fill: #06b6d4"/>
   </g>
   <g id="patch_6">
    <path d="M 511.35121 391.797187 
L 565.508694 391.797187 
Q 579.048065 391.797187 579.048065 390.738957 
L 579.048065 115.069811 
Q 579.048065 114.01158 565.508694 114.01158 
L 511.35121 114.01158 
Q 497.811838 114.01158 497.811838 115.069811 
L 497.811838 390.738957 
Q 497.811838 391.797187 511.35121 391.797187 
z
" clip-path="url(#p6cb2497c08)" style="fill: #06b6d4"/>
   </g>
   <g id="patch_7">
    <path d="M 263.129405 391.797187 
L 317.28689 391.797187 
Q 330.826261 391.797187 330.826261 390.738957 
L 330.826261 122.477427 
Q 330.826261 121.419196 317.28689 121.419196 
L 263.129405 121.419196 
Q 249.590034 121.419196 249.590034 122.477427 
L 249.590034 390.738957 
Q 249.590034 391.797187 263.129405 391.797187 
z
" clip-path="url(#p6cb2497c08)" style="fill: #22c55e"/>
   </g>
   <g id="patch_8">
    <path d="M 601.613684 391.797187 
L 655.771169 391.797187 
Q 669.31054 391.797187 669.31054 390.738957 
L 669.31054 115.598927 
Q 669.31054 114.540696 655.771169 114.540696 
L 601.613684 114.540696 
Q 588.074313 114.540696 588.074313 115.598927 
L 588.074313 390.738957 
Q 588.074313 391.797187 601.613684 391.797187 
z
" clip-path="url(#p6cb2497c08)" style="fill: #22c55e"/>
   </g>
   <g id="patch_9">
    <path d="M 39.052813 391.797187 
L 39.052813 38.877187 
" style="fill: none; stroke: #30363d; stroke-width: 0.8; stroke-linejoin: miter; stroke-linecap: square"/>
   </g>
   <g id="patch_10">
    <path d="M 39.052813 391.797187 
L 699.322813 391.797187 
" style="fill: none; stroke: #30363d; stroke-width: 0.8; stroke-linejoin: miter; stroke-linecap: square"/>
   </g>
   <g id="text_11">
    <text style="font-size: 10px; font-family: 'DejaVu Sans'; text-anchor: middle; fill: #f0f6fc" x="109.683199" y="106.799473" transform="rotate(-0 109.683199 106.799473)">5.3</text>
   </g>
   <g id="text_12">
    <text style="font-size: 10px; font-family: 'DejaVu Sans'; text-anchor: middle; fill: #f0f6fc" x="448.167478" y="103.62478" transform="rotate(-0 448.167478 103.62478)">5.3</text>
   </g>
   <g id="text_13">
    <text style="font-size: 10px; font-family: 'DejaVu Sans'; text-anchor: middle; fill: #f0f6fc" x="199.945673" y="78.227239" transform="rotate(-0 199.945673 78.227239)">5.8</text>
   </g>
   <g id="text_14">
    <text style="font-size: 10px; font-family: 'DejaVu Sans'; text-anchor: middle; fill: #f0f6fc" x="538.429952" y="107.328588" transform="rotate(-0 538.429952 107.328588)">5.2</text>
   </g>
   <g id="text_15">
    <text style="font-size: 10px; font-family: 'DejaVu Sans'; text-anchor: middle; fill: #f0f6fc" x="290.208147" y="114.736205" transform="rotate(-0 290.208147 114.736205)">5.1</text>
   </g>
   <g id="text_16">
    <text style="font-size: 10px; font-family: 'DejaVu Sans'; text-anchor: middle; fill: #f0f6fc" x="628.692426" y="107.857704" transform="rotate(-0 628.692426 107.857704)">5.2</text>
   </g>
   <g id="text_17">
    <text style="font-weight: 700; font-size: 18px; font-family: 'DejaVu Sans'; text-anchor: middle; fill: #ffffff" x="369.187813" y="20.877187" transform="rotate(-0 369.187813 20.877187)">Gen-AI cpu pp2</text>
   </g>
   <g id="legend_1">
    <g id="patch_11">
     <path d="M 50.752813 60.455156 
L 76.752813 60.455156 
L 76.752813 51.355156 
L 50.752813 51.355156 
z
" style="fill: #4f8ef7"/>
    </g>
    <g id="text_18">
     <text style="font-size: 13px; font-family: 'DejaVu Sans'; text-anchor: start; fill: #f0f6fc" x="87.152813" y="60.455156" transform="rotate(-0 87.152813 60.455156)">v1-build</text>
    </g>
    <g id="patch_12">
     <path d="M 165.776406 60.455156 
L 191.776406 60.455156 
L 191.776406 51.355156 
L 165.776406 51.355156 
z
" style="fill: #06b6d4"/>
    </g>
    <g id="text_19">
     <text style="font-size: 13px; font-family: 'DejaVu Sans'; text-anchor: start; fill: #f0f6fc" x="202.176406" y="60.455156" transform="rotate(-0 202.176406 60.455156)">v3-build</text>
    </g>
    <g id="patch_13">
     <path d="M 280.8 60.455156 
L 306.8 60.455156 
L 306.8 51.355156 
L 280.8 51.355156 
z
" style="fill: #22c55e"/>
    </g>
    <g id="text_20">
     <text style="font-size: 13px; font-family: 'DejaVu Sans'; text-anchor: start; fill: #f0f6fc" x="317.2" y="60.455156" transform="rotate(-0 317.2 60.455156)">native-build</text>
    </g>
   </g>
  </g>
 </g>
 <defs>
  <clipPath id="p6cb2497c08">
   <rect x="39.052813" y="38.877187" width="660.27" height="352.92"/>
  </clipPath>
 </defs>
</svg>
