<?xml version="1.0" encoding="utf-8" standalone="no"?>
<!DOCTYPE svg PUBLIC "-//W3C//DTD SVG 1.1//EN"
  "http://www.w3.org/Graphics/SVG/1.1/DTD/svg11.dtd">
<svg xmlns:xlink="http://www.w3.org/1999/xlink" width="706.607812pt" height="418.57875pt" viewBox="0 0 706.607812 418.57875" xmlns="http://www.w3.org/2000/svg" version="1.1">
 <metadata>
  <rdf:RDF xmlns:dc="http://purl.org/dc/elements/1.1/" xmlns:cc="http://creativecommons.org/ns#" xmlns:rdf="http://www.w3.org/1999/02/22-rdf-syntax-ns#">
   <cc:Work>
    <dc:type rdf:resource="http://purl.org/dc/dcmitype/StillImage"/>
    <dc:date>2026-06-30T21:07:55.549550</dc:date>
    <dc:format>image/svg+xml</dc:format>
    <dc:creator>
     <cc:Agent>
      <dc:title>Matplotlib v3.10.9, https://matplotlib.org/</dc:title>
     </cc:Agent>
    </dc:creator>
   </cc:Work>
  </rdf:RDF>
 </metadata>
 <defs>
  <style type="text/css">*{stroke-linejoin: round; stroke-linecap: butt}</style>
 </defs>
 <g id="figure_1">
  <g id="patch_1">
   <path d="M -0 418.57875 
L 706.607812 418.57875 
L 706.607812 0 
L -0 0 
z
" style="fill: #0d1117"/>
  </g>
  <g id="axes_1">
   <g id="patch_2">
    <path d="M 72.137813 391.797187 
L 699.407812 391.797187 
L 699.407812 38.877187 
L 72.137813 38.877187 
z
" style="fill: #161b22"/>
   </g>
   <g id="matplotlib.axis_1">
    <g id="xtick_1">
     <g id="line2d_1">
      <path d="M 146.173882 391.797187 
L 146.173882 38.877187 
" clip-path="url(#p2fd45581d4)" style="fill: none; stroke-dasharray: 2.96,1.28; stroke-dashoffset: 0; stroke: #30363d; stroke-opacity: 0.35; stroke-width: 0.8"/>
     </g>
     <g id="line2d_2">
      <defs>
       <path id="m620d376b33" d="M 0 0 
L 0 3.5 
" style="stroke: #c9d1d9; stroke-width: 0.8"/>
      </defs>
      <g>
       <use xlink:href="#m620d376b33" x="146.173882" y="391.797187" style="fill: #c9d1d9; stroke: #c9d1d9; stroke-width: 0.8"/>
      </g>
     </g>
     <g id="text_1">
      <text style="font-size: 13px; font-family: 'DejaVu Sans'; text-anchor: middle; fill: #c9d1d9" x="146.173882" y="408.675156" transform="rotate(-0 146.173882 408.675156)">keygen</text>
     </g>
    </g>
    <g id="xtick_2">
     <g id="line2d_3">
      <path d="M 265.973347 391.797187 
L 265.973347 38.877187 
" clip-path="url(#p2fd45581d4)" style="fill: none; stroke-dasharray: 2.96,1.28; stroke-dashoffset: 0; stroke: #30363d; stroke-opacity: 0.35; stroke-width: 0.8"/>
     </g>
     <g id="line2d_4">
      <g>
       <use xlink:href="#m620d376b33" x="265.973347" y="391.797187" style="fill: #c9d1d9; stroke: #c9d1d9; stroke-width: 0.8"/>
      </g>
     </g>
     <g id="text_2">
      <text style="font-size: 13px; font-family: 'DejaVu Sans'; text-anchor: middle; fill: #c9d1d9" x="265.973347" y="408.675156" transform="rotate(-0 265.973347 408.675156)">encryption</text>
     </g>
    </g>
    <g id="xtick_3">
     <g id="line2d_5">
      <path d="M 385.772812 391.797187 
L 385.772812 38.877187 
" clip-path="url(#p2fd45581d4)" style="fill: none; stroke-dasharray: 2.96,1.28; stroke-dashoffset: 0; stroke: #30363d; stroke-opacity: 0.35; stroke-width: 0.8"/>
     </g>
     <g id="line2d_6">
      <g>
       <use xlink:href="#m620d376b33" x="385.772812" y="391.797187" style="fill: #c9d1d9; stroke: #c9d1d9; stroke-width: 0.8"/>
      </g>
     </g>
     <g id="text_3">
      <text style="font-size: 13px; font-family: 'DejaVu Sans'; text-anchor: middle; fill: #c9d1d9" x="385.772812" y="408.675156" transform="rotate(-0 385.772812 408.675156)">decryption</text>
     </g>
    </g>
    <g id="xtick_4">
     <g id="line2d_7">
      <path d="M 505.572278 391.797187 
L 505.572278 38.877187 
" clip-path="url(#p2fd45581d4)" style="fill: none; stroke-dasharray: 2.96,1.28; stroke-dashoffset: 0; stroke: #30363d; stroke-opacity: 0.35; stroke-width: 0.8"/>
     </g>
     <g id="line2d_8">
      <g>
       <use xlink:href="#m620d376b33" x="505.572278" y="391.797187" style="fill: #c9d1d9; stroke: #c9d1d9; stroke-width: 0.8"/>
      </g>
     </g>
     <g id="text_4">
      <text style="font-size: 13px; font-family: 'DejaVu Sans'; text-anchor: middle; fill: #c9d1d9" x="505.572278" y="408.675156" transform="rotate(-0 505.572278 408.675156)">sign</text>
     </g>
    </g>
    <g id="xtick_5">
     <g id="line2d_9">
      <path d="M 625.371743 391.797187 
L 625.371743 38.877187 
" clip-path="url(#p2fd45581d4)" style="fill: none; stroke-dasharray: 2.96,1.28; stroke-dashoffset: 0; stroke: #30363d; stroke-opacity: 0.35; stroke-width: 0.8"/>
     </g>
     <g id="line2d_10">
      <g>
       <use xlink:href="#m620d376b33" x="625.371743" y="391.797187" style="fill: #c9d1d9; stroke: #c9d1d9; stroke-width: 0.8"/>
      </g>
     </g>
     <g id="text_5">
      <text style="font-size: 13px; font-family: 'DejaVu Sans'; text-anchor: middle; fill: #c9d1d9" x="625.371743" y="408.675156" transform="rotate(-0 625.371743 408.675156)">verify</text>
     </g>
    </g>
   </g>
   <g id="matplotlib.axis_2">
    <g id="ytick_1">
     <g id="line2d_11">
      <defs>
       <path id="m7b2bd26405" d="M 0 0 
L -3.5 0 
" style="stroke: #c9d1d9; stroke-width: 0.8"/>
      </defs>
      <g>
       <use xlink:href="#m7b2bd26405" x="72.137813" y="391.797187" style="fill: #c9d1d9; stroke: #c9d1d9; stroke-width: 0.8"/>
      </g>
     </g>
     <g id="text_6">
      <text style="font-size: 13px; font-family: 'DejaVu Sans'; text-anchor: end; fill: #c9d1d9" x="65.137813" y="396.736172" transform="rotate(-0 65.137813 396.736172)">0</text>
     </g>
    </g>
    <g id="ytick_2">
     <g id="line2d_12">
      <g>
       <use xlink:href="#m7b2bd26405" x="72.137813" y="334.982052" style="fill: #c9d1d9; stroke: #c9d1d9; stroke-width: 0.8"/>
      </g>
     </g>
     <g id="text_7">
      <text style="font-size: 13px; font-family: 'DejaVu Sans'; text-anchor: end; fill: #c9d1d9" x="65.137813" y="339.921036" transform="rotate(-0 65.137813 339.921036)">2000</text>
     </g>
    </g>
    <g id="ytick_3">
     <g id="line2d_13">
      <g>
       <use xlink:href="#m7b2bd26405" x="72.137813" y="278.166916" style="fill: #c9d1d9; stroke: #c9d1d9; stroke-width: 0.8"/>
      </g>
     </g>
     <g id="text_8">
      <text style="font-size: 13px; font-family: 'DejaVu Sans'; text-anchor: end; fill: #c9d1d9" x="65.137813" y="283.1059" transform="rotate(-0 65.137813 283.1059)">4000</text>
     </g>
    </g>
    <g id="ytick_4">
     <g id="line2d_14">
      <g>
       <use xlink:href="#m7b2bd26405" x="72.137813" y="221.35178" style="fill: #c9d1d9; stroke: #c9d1d9; stroke-width: 0.8"/>
      </g>
     </g>
     <g id="text_9">
      <text style="font-size: 13px; font-family: 'DejaVu Sans'; text-anchor: end; fill: #c9d1d9" x="65.137813" y="226.290764" transform="rotate(-0 65.137813 226.290764)">6000</text>
     </g>
    </g>
    <g id="ytick_5">
     <g id="line2d_15">
      <g>
       <use xlink:href="#m7b2bd26405" x="72.137813" y="164.536644" style="fill: #c9d1d9; stroke: #c9d1d9; stroke-width: 0.8"/>
      </g>
     </g>
     <g id="text_10">
      <text style="font-size: 13px; font-family: 'DejaVu Sans'; text-anchor: end; fill: #c9d1d9" x="65.137813" y="169.475628" transform="rotate(-0 65.137813 169.475628)">8000</text>
     </g>
    </g>
    <g id="ytick_6">
     <g id="line2d_16">
      <g>
       <use xlink:href="#m7b2bd26405" x="72.137813" y="107.721508" style="fill: #c9d1d9; stroke: #c9d1d9; stroke-width: 0.8"/>
      </g>
     </g>
     <g id="text_11">
      <text style="font-size: 13px; font-family: 'DejaVu Sans'; text-anchor: end; fill: #c9d1d9" x="65.137813" y="112.660492" transform="rotate(-0 65.137813 112.660492)">10000</text>
     </g>
    </g>
    <g id="ytick_7">
     <g id="line2d_17">
      <g>
       <use xlink:href="#m7b2bd26405" x="72.137813" y="50.906372" style="fill: #c9d1d9; stroke: #c9d1d9; stroke-width: 0.8"/>
      </g>
     </g>
     <g id="text_12">
      <text style="font-size: 13px; font-family: 'DejaVu Sans'; text-anchor: end; fill: #c9d1d9" x="65.137813" y="55.845357" transform="rotate(-0 65.137813 55.845357)">12000</text>
     </g>
    </g>
    <g id="text_13">
     <text style="font-size: 13px; font-family: 'DejaVu Sans'; text-anchor: middle; fill: #f0f6fc" x="17.077969" y="215.337187" transform="rotate(-90 17.077969 215.337187)">Oprations/S</text>
    </g>
   </g>
   <g id="patch_3">
    <path d="M 105.442064 391.797187 
L 138.985914 391.797187 
Q 143.777893 391.797187 143.777893 391.796619 
L 143.777893 391.752304 
Q 143.777893 391.751735 138.985914 391.751735 
L 105.442064 391.751735 
Q 100.650085 391.751735 100.650085 391.752304 
L 100.650085 391.796619 
Q 100.650085 391.797187 105.442064 391.797187 
z
" clip-path="url(#p2fd45581d4)" style="fill: #4f8ef7"/>
   </g>
   <g id="patch_4">
    <path d="M 225.241529 391.797187 
L 258.785379 391.797187 
Q 263.577358 391.797187 263.577358 391.796619 
L 263.577358 100.364516 
Q 263.577358 100.363948 258.785379 100.363948 
L 225.241529 100.363948 
Q 220.44955 100.363948 220.44955 100.364516 
L 220.44955 391.796619 
Q 220.44955 391.797187 225.241529 391.797187 
z
" clip-path="url(#p2fd45581d4)" style="fill: #4f8ef7"/>
   </g>
   <g id="patch_5">
    <path d="M 345.040994 391.797187 
L 378.584845 391.797187 
Q 383.376823 391.797187 383.376823 391.796619 
L 383.376823 387.073577 
Q 383.376823 387.073009 378.584845 387.073009 
L 345.040994 387.073009 
Q 340.249016 387.073009 340.249016 387.073577 
L 340.249016 391.796619 
Q 340.249016 391.797187 345.040994 391.797187 
z
" clip-path="url(#p2fd45581d4)" style="fill: #4f8ef7"/>
   </g>
   <g id="patch_6">
    <path d="M 464.84046 391.797187 
L 498.38431 391.797187 
Q 503.176288 391.797187 503.176288 391.796619 
L 503.176288 387.062214 
Q 503.176288 387.061646 498.38431 387.061646 
L 464.84046 387.061646 
Q 460.048481 387.061646 460.048481 387.062214 
L 460.048481 391.796619 
Q 460.048481 391.797187 464.84046 391.797187 
z
" clip-path="url(#p2fd45581d4)" style="fill: #4f8ef7"/>
   </g>
   <g id="patch_7">
    <path d="M 584.639925 391.797187 
L 618.183775 391.797187 
Q 622.975754 391.797187 622.975754 391.796619 
L 622.975754 84.910799 
Q 622.975754 84.910231 618.183775 84.910231 
L 584.639925 84.910231 
Q 579.847946 84.910231 579.847946 84.910799 
L 579.847946 391.796619 
Q 579.847946 391.797187 584.639925 391.797187 
z
" clip-path="url(#p2fd45581d4)" style="fill: #4f8ef7"/>
   </g>
   <g id="patch_8">
    <path d="M 153.36185 391.797187 
L 186.9057 391.797187 
Q 191.697679 391.797187 191.697679 391.796619 
L 191.697679 391.763667 
Q 191.697679 391.763098 186.9057 391.763098 
L 153.36185 391.763098 
Q 148.569871 391.763098 148.569871 391.763667 
L 148.569871 391.796619 
Q 148.569871 391.797187 153.36185 391.797187 
z
" clip-path="url(#p2fd45581d4)" style="fill: #06b6d4"/>
   </g>
   <g id="patch_9">
    <path d="M 273.161315 391.797187 
L 306.705165 391.797187 
Q 311.497144 391.797187 311.497144 391.796619 
L 311.497144 110.790094 
Q 311.497144 110.789525 306.705165 110.789525 
L 273.161315 110.789525 
Q 268.369337 110.789525 268.369337 110.790094 
L 268.369337 391.796619 
Q 268.369337 391.797187 273.161315 391.797187 
z
" clip-path="url(#p2fd45581d4)" style="fill: #06b6d4"/>
   </g>
   <g id="patch_10">
    <path d="M 392.96078 391.797187 
L 426.504631 391.797187 
Q 431.296609 391.797187 431.296609 391.796619 
L 431.296609 387.621843 
Q 431.296609 387.621275 426.504631 387.621275 
L 392.96078 387.621275 
Q 388.168802 387.621275 388.168802 387.621843 
L 388.168802 391.796619 
Q 388.168802 391.797187 392.96078 391.797187 
z
" clip-path="url(#p2fd45581d4)" style="fill: #06b6d4"/>
   </g>
   <g id="patch_11">
    <path d="M 512.760246 391.797187 
L 546.304096 391.797187 
Q 551.096075 391.797187 551.096075 391.796619 
L 551.096075 387.138915 
Q 551.096075 387.138346 546.304096 387.138346 
L 512.760246 387.138346 
Q 507.968267 387.138346 507.968267 387.138915 
L 507.968267 391.796619 
Q 507.968267 391.797187 512.760246 391.797187 
z
" clip-path="url(#p2fd45581d4)" style="fill: #06b6d4"/>
   </g>
   <g id="patch_12">
    <path d="M 632.559711 391.797187 
L 666.103561 391.797187 
Q 670.89554 391.797187 670.89554 391.796619 
L 670.89554 94.114851 
Q 670.89554 94.114283 666.103561 94.114283 
L 632.559711 94.114283 
Q 627.767732 94.114283 627.767732 94.114851 
L 627.767732 391.796619 
Q 627.767732 391.797187 632.559711 391.797187 
z
" clip-path="url(#p2fd45581d4)" style="fill: #06b6d4"/>
   </g>
   <g id="patch_13">
    <path d="M 72.137813 391.797187 
L 72.137813 38.877187 
" style="fill: none; stroke: #30363d; stroke-width: 0.8; stroke-linejoin: miter; stroke-linecap: square"/>
   </g>
   <g id="patch_14">
    <path d="M 72.137813 391.797187 
L 699.407812 391.797187 
" style="fill: none; stroke: #30363d; stroke-width: 0.8; stroke-linejoin: miter; stroke-linecap: square"/>
   </g>
   <g id="text_14">
    <text style="font-size: 10px; font-family: 'DejaVu Sans'; text-anchor: middle; fill: #f0f6fc" x="122.213989" y="385.068744" transform="rotate(-0 122.213989 385.068744)">1.6</text>
   </g>
   <g id="text_15">
    <text style="font-size: 10px; font-family: 'DejaVu Sans'; text-anchor: middle; fill: #f0f6fc" x="242.013454" y="93.680956" transform="rotate(-0 242.013454 93.680956)">10259.0</text>
   </g>
   <g id="text_16">
    <text style="font-size: 10px; font-family: 'DejaVu Sans'; text-anchor: middle; fill: #f0f6fc" x="361.812919" y="380.390017" transform="rotate(-0 361.812919 380.390017)">166.3</text>
   </g>
   <g id="text_17">
    <text style="font-size: 10px; font-family: 'DejaVu Sans'; text-anchor: middle; fill: #f0f6fc" x="481.612385" y="380.378654" transform="rotate(-0 481.612385 380.378654)">166.7</text>
   </g>
   <g id="text_18">
    <text style="font-size: 10px; font-family: 'DejaVu Sans'; text-anchor: middle; fill: #f0f6fc" x="601.41185" y="78.227239" transform="rotate(-0 601.41185 78.227239)">10803.0</text>
   </g>
   <g id="text_19">
    <text style="font-size: 10px; font-family: 'DejaVu Sans'; text-anchor: middle; fill: #f0f6fc" x="170.133775" y="385.080107" transform="rotate(-0 170.133775 385.080107)">1.2</text>
   </g>
   <g id="text_20">
    <text style="font-size: 10px; font-family: 'DejaVu Sans'; text-anchor: middle; fill: #f0f6fc" x="289.93324" y="104.106534" transform="rotate(-0 289.93324 104.106534)">9892.0</text>
   </g>
   <g id="text_21">
    <text style="font-size: 10px; font-family: 'DejaVu Sans'; text-anchor: middle; fill: #f0f6fc" x="409.732706" y="380.938283" transform="rotate(-0 409.732706 380.938283)">147.0</text>
   </g>
   <g id="text_22">
    <text style="font-size: 10px; font-family: 'DejaVu Sans'; text-anchor: middle; fill: #f0f6fc" x="529.532171" y="380.455355" transform="rotate(-0 529.532171 380.455355)">164.0</text>
   </g>
   <g id="text_23">
    <text style="font-size: 10px; font-family: 'DejaVu Sans'; text-anchor: middle; fill: #f0f6fc" x="649.331636" y="87.431291" transform="rotate(-0 649.331636 87.431291)">10479.0</text>
   </g>
   <g id="text_24">
    <text style="font-weight: 700; font-size: 18px; font-family: 'DejaVu Sans'; text-anchor: middle; fill: #ffffff" x="385.772812" y="20.877187" transform="rotate(-0 385.772812 20.877187)">rsa cryptograph</text>
   </g>
   <g id="legend_1">
    <g id="patch_15">
     <path d="M 83.837813 60.455156 
L 109.837813 60.455156 
L 109.837813 51.355156 
L 83.837813 51.355156 
z
" style="fill: #4f8ef7"/>
    </g>
    <g id="text_25">
     <text style="font-size: 13px; font-family: 'DejaVu Sans'; text-anchor: start; fill: #f0f6fc" x="120.237813" y="60.455156" transform="rotate(-0 120.237813 60.455156)">linux</text>
    </g>
    <g id="patch_16">
     <path d="M 177.632812 60.455156 
L 203.632812 60.455156 
L 203.632812 51.355156 
L 177.632812 51.355156 
z
" style="fill: #06b6d4"/>
    </g>
    <g id="text_26">
     <text style="font-size: 13px; font-family: 'DejaVu Sans'; text-anchor: start; fill: #f0f6fc" x="214.032813" y="60.455156" transform="rotate(-0 214.032813 60.455156)">cachyos-bore-v3</text>
    </g>
   </g>
  </g>
 </g>
 <defs>
  <clipPath id="p2fd45581d4">
   <rect x="72.137813" y="38.877187" width="627.27" height="352.92"/>
  </clipPath>
 </defs>
</svg>
